<svg width="75" height="56" viewBox="0 0 75 56" fill="none" xmlns="http://www.w3.org/2000/svg">
<path d="M30.4688 28C29.8215 28 29.2969 28.5223 29.2969 29.1667C29.2969 29.811 29.8215 30.3333 30.4688 30.3333H44.5312C45.1785 30.3333 45.7031 29.811 45.7031 29.1667C45.7031 28.5223 45.1785 28 44.5312 28H30.4688Z" fill="#D1D1D6" fill-opacity="0.72"/>
<path fill-rule="evenodd" clip-rule="evenodd" d="M4.6875 0C2.09867 0 0 2.08934 0 4.66667V14C0 16.5773 2.09866 18.6667 4.6875 18.6667V45.5C4.6875 51.299 9.4095 56 15.2344 56H59.7656C65.5905 56 70.3125 51.299 70.3125 45.5V18.6667C72.9013 18.6667 75 16.5773 75 14V4.66667C75 2.08934 72.9013 0 70.3125 0H4.6875ZM9.375 45.5V18.6667H65.625V45.5C65.625 48.7217 63.0017 51.3333 59.7656 51.3333H15.2344C11.9983 51.3333 9.375 48.7217 9.375 45.5ZM4.6875 4.66667H70.3125V14H4.6875V4.66667Z" fill="#D1D1D6" fill-opacity="0.72"/>
</svg>
