<svg width="181" height="69" viewBox="0 0 181 69" fill="none" xmlns="http://www.w3.org/2000/svg">
<path d="M163.997 23.5344L177.959 44.5198H169.123L159.455 29.9909L132.47 68.2927H123.634L155.161 23.5335L139.632 0.192544H148.468L159.706 17.0837L160.41 16.0856L171.652 0.122615H180.488L163.997 23.5344Z" fill="white"/>
<path d="M64.2753 44.379H57.4365V40.3231C55.3686 43.5787 52.0975 45.2066 47.6185 45.2066C43.9857 45.2066 41.053 44.0448 38.8159 41.7207C36.5789 39.3967 35.4601 36.2071 35.46 32.1472V12.6839H42.2989V31.4507C42.2989 33.8171 42.9334 35.6331 44.1977 36.9033C45.4618 38.1733 47.1957 38.8037 49.3901 38.8038C51.7963 38.8038 53.738 38.0562 55.2184 36.5555C56.6941 35.0548 57.4365 32.7629 57.4365 29.6767V12.6792H64.2753V44.379Z" fill="white"/>
<path fill-rule="evenodd" clip-rule="evenodd" d="M6.83788 17.1814C9.41339 13.6294 13.1081 11.8553 17.9208 11.8553C22.268 11.8554 25.9856 13.4605 29.0687 16.6737C32.1515 19.8869 33.6932 23.8387 33.6932 28.5291C33.6932 33.2195 32.1517 37.1198 29.0687 40.3518C25.9856 43.5838 22.2727 45.2017 17.9208 45.2018C13.1081 45.2018 9.41339 43.405 6.83788 39.8154V44.379H0V0H6.83788V17.1814ZM16.8442 18.3808C13.9726 18.3808 11.5895 19.3409 9.68605 21.2651C7.78744 23.1892 6.83789 25.6075 6.83788 28.5243C6.83788 31.441 7.78746 33.8593 9.68605 35.7835C11.5848 37.7077 13.9726 38.6678 16.8442 38.6678C19.7158 38.6678 22.099 37.7077 24.0024 35.7835C25.901 33.8593 26.8505 31.441 26.8505 28.5243C26.8505 25.6075 25.901 23.1892 24.0024 21.2651C22.1037 19.3409 19.7158 18.3808 16.8442 18.3808Z" fill="white"/>
<path fill-rule="evenodd" clip-rule="evenodd" d="M100.374 44.379H93.5362V39.8154C90.9607 43.4097 87.2659 45.2018 82.4533 45.2018C78.1061 45.2017 74.3884 43.5838 71.3054 40.3518C68.2224 37.1198 66.6808 33.1772 66.6808 28.5291C66.6808 23.881 68.2225 19.8869 71.3054 16.6737C74.3884 13.4606 78.1014 11.8554 82.4533 11.8553C87.2659 11.8553 90.9607 13.6294 93.5362 17.1814V0H100.374V44.379ZM83.5298 18.3808C80.6583 18.3808 78.2751 19.3409 76.3717 21.2651C74.4731 23.1892 73.5245 25.6075 73.5245 28.5243C73.5245 31.441 74.4731 33.8593 76.3717 35.7835C78.2704 37.7076 80.6583 38.6678 83.5298 38.6678C86.4014 38.6678 88.7846 37.7077 90.688 35.7835C92.5866 33.8593 93.5362 31.4411 93.5362 28.5243C93.5362 25.6075 92.5866 23.1893 90.688 21.2651C88.7893 19.3409 86.4014 18.3808 83.5298 18.3808Z" fill="white"/>
<path fill-rule="evenodd" clip-rule="evenodd" d="M136.469 44.379H129.631V39.8154C127.056 43.4097 123.362 45.2017 118.549 45.2018C114.202 45.2018 110.484 43.5838 107.401 40.3518C104.318 37.1197 102.777 33.1772 102.777 28.5291C102.777 23.8809 104.318 19.887 107.401 16.6737C110.484 13.4604 114.197 11.8553 118.549 11.8553C123.362 11.8554 127.056 13.6295 129.631 17.1814V0H136.469V44.379ZM119.63 18.3808C116.758 18.3808 114.376 19.341 112.472 21.2651C110.574 23.1893 109.624 25.6074 109.624 28.5243C109.624 31.4412 110.574 33.8593 112.472 35.7835C114.371 37.7075 116.758 38.6677 119.63 38.6678C122.501 38.6678 124.884 37.7077 126.788 35.7835C128.686 33.8593 129.636 31.4411 129.636 28.5243C129.636 25.6074 128.686 23.1893 126.788 21.2651C124.889 19.3409 122.501 18.3808 119.63 18.3808Z" fill="white"/>
</svg>
