<svg width="85" height="32" viewBox="0 0 85 32" fill="none" xmlns="http://www.w3.org/2000/svg">
<path d="M8.4402 5.54238C10.4875 5.54238 12.2379 6.29335 13.6887 7.79528C15.1395 9.29721 15.8655 11.1438 15.8655 13.3377C15.8655 15.5315 15.1395 17.3526 13.6887 18.864C12.2365 20.3753 10.4875 21.1316 8.4402 21.1316C6.17293 21.1316 4.43333 20.2921 3.22142 18.6132V20.7467H0V0H3.22142V8.03129C4.43333 6.37113 6.17428 5.54238 8.4402 5.54238ZM4.56289 16.7291C5.45766 17.6289 6.5805 18.0781 7.93277 18.0781C9.28504 18.0781 10.4079 17.6289 11.3026 16.7291C12.1974 15.8306 12.6441 14.6988 12.6441 13.3363C12.6441 11.9739 12.1974 10.842 11.3026 9.94357C10.4079 9.0451 9.28504 8.59452 7.93277 8.59452C6.5805 8.59452 5.45766 9.04376 4.56289 9.94357C3.66813 10.8434 3.22142 11.9739 3.22142 13.3363C3.22142 14.6988 3.66813 15.8306 4.56289 16.7291Z" fill="white"/>
<path d="M27.0509 5.92702H30.2723V20.7452H27.0509V18.849C26.0765 20.371 24.5353 21.1314 22.4286 21.1314C20.7187 21.1314 19.3368 20.5883 18.2828 19.502C17.2287 18.4158 16.7024 16.9233 16.7024 15.0271V5.92702H19.9238V14.6986C19.9238 15.8049 20.2221 16.6551 20.8186 17.2478C21.4151 17.8405 22.2303 18.1369 23.264 18.1369C24.3977 18.1369 25.3113 17.7869 26.0077 17.0842C26.7041 16.3829 27.0509 15.3114 27.0509 13.8685V5.92568V5.92702Z" fill="white"/>
<path d="M44.0502 0H47.2716V20.744H44.0502V18.6105C42.8369 20.2894 41.0973 21.1289 38.8314 21.1289C36.7828 21.1289 35.0337 20.3726 33.5829 18.8613C32.1308 17.35 31.4061 15.5074 31.4061 13.335C31.4061 11.1625 32.1321 9.29452 33.5829 7.79259C35.0337 6.29201 36.7841 5.5397 38.8314 5.5397C41.0973 5.5397 42.8383 6.36979 44.0502 8.02861V0ZM35.9676 16.7291C36.8624 17.6289 37.9852 18.0781 39.3375 18.0781C40.6898 18.0781 41.8126 17.6289 42.7074 16.7291C43.6021 15.8306 44.0502 14.6988 44.0502 13.3363C44.0502 11.9739 43.6021 10.842 42.7074 9.94357C41.8126 9.0451 40.6898 8.59452 39.3375 8.59452C37.9852 8.59452 36.8624 9.04375 35.9676 9.94357C35.0729 10.8434 34.6248 11.9739 34.6248 13.3363C34.6248 14.6988 35.0729 15.8306 35.9676 16.7291Z" fill="white"/>
<path d="M61.0502 0H64.2716V20.744H61.0502V18.6105C59.8369 20.2894 58.0973 21.1289 55.8314 21.1289C53.7828 21.1289 52.0337 20.3726 50.5829 18.8613C49.1308 17.35 48.4061 15.5074 48.4061 13.335C48.4061 11.1625 49.1321 9.29452 50.5829 7.79259C52.0337 6.29201 53.7841 5.5397 55.8314 5.5397C58.0973 5.5397 59.8383 6.36979 61.0502 8.02861V0ZM52.9676 16.7291C53.8624 17.6289 54.9852 18.0781 56.3375 18.0781C57.6898 18.0781 58.8126 17.6289 59.7074 16.7291C60.6021 15.8306 61.0502 14.6988 61.0502 13.3363C61.0502 11.9739 60.6021 10.842 59.7074 9.94357C58.8126 9.0451 57.6898 8.59452 56.3375 8.59452C54.9852 8.59452 53.8624 9.04375 52.9676 9.94357C52.0729 10.8434 51.6248 11.9739 51.6248 13.3363C51.6248 14.6988 52.0729 15.8306 52.9676 16.7291Z" fill="white"/>
<path d="M77.5648 10.5355L77.2334 11.0013L83.8097 20.8122H79.6484L75.0949 14.0183L62.3866 31.9262H58.2253L73.0731 11.0013L72.7604 10.5345L65.7605 0.0902065H69.9208L74.9008 7.51949L75.2136 7.98622L75.545 7.51949L80.8387 0.0578498H85L77.5648 10.5355Z" fill="url(#paint0_linear_2029_18048)"/>
<defs>
<linearGradient id="paint0_linear_2029_18048" x1="62.7515" y1="3.49139" x2="87.2094" y2="6.47064" gradientUnits="userSpaceOnUse">
<stop stop-color="#ED89EF"/>
<stop offset="0.5" stop-color="#7C5FE2"/>
<stop offset="1" stop-color="#55DEDC"/>
</linearGradient>
</defs>
</svg>
