<svg width="85" height="32" viewBox="0 0 85 32" fill="none" xmlns="http://www.w3.org/2000/svg">
<path d="M8.40626 5.55534C10.4453 5.55534 12.1887 6.30806 13.6336 7.8135C15.0786 9.31894 15.8017 11.1698 15.8017 13.3688C15.8017 15.5679 15.0786 17.3932 13.6336 18.9081C12.1873 20.4229 10.4453 21.181 8.40626 21.181C6.14811 21.181 4.41551 20.3396 3.20847 18.6567V20.7952H0V0H3.20847V8.05007C4.41551 6.38602 6.14945 5.55534 8.40626 5.55534ZM4.54455 16.7682C5.43571 17.6701 6.55404 18.1204 7.90087 18.1204C9.2477 18.1204 10.366 17.6701 11.2572 16.7682C12.1484 15.8676 12.5933 14.7331 12.5933 13.3675C12.5933 12.0018 12.1484 10.8674 11.2572 9.96682C10.366 9.06624 9.2477 8.61461 7.90087 8.61461C6.55404 8.61461 5.43571 9.0649 4.54455 9.96682C3.65338 10.8687 3.20847 12.0018 3.20847 13.3675C3.20847 14.7331 3.65338 15.8676 4.54455 16.7682Z" fill="white"/>
<path d="M26.9419 5.9411H30.1504V20.7939H26.9419V18.8933C25.9714 20.4189 24.4364 21.181 22.3382 21.181C20.6352 21.181 19.2588 20.6366 18.209 19.5479C17.1592 18.4591 16.635 16.9631 16.635 15.0625V5.9411H19.8435V14.7331C19.8435 15.8421 20.1405 16.6942 20.7346 17.2884C21.3288 17.8825 22.1406 18.1795 23.1702 18.1795C24.2993 18.1795 25.2093 17.8287 25.9029 17.1244C26.5965 16.4214 26.9419 15.3474 26.9419 13.9011V5.93976V5.9411Z" fill="white"/>
<path d="M43.8728 0H47.0813V20.7925H43.8728V18.654C42.6644 20.3369 40.9318 21.1783 38.675 21.1783C36.6346 21.1783 34.8926 20.4202 33.4476 18.9054C32.0013 17.3905 31.2795 15.5437 31.2795 13.3662C31.2795 11.1886 32.0027 9.31625 33.4476 7.81081C34.8926 6.30672 36.636 5.55265 38.675 5.55265C40.9318 5.55265 42.6658 6.38468 43.8728 8.04738V0ZM35.8227 16.7682C36.7139 17.6701 37.8322 18.1204 39.1791 18.1204C40.5259 18.1204 41.6442 17.6701 42.5354 16.7682C43.4266 15.8676 43.8728 14.7331 43.8728 13.3675C43.8728 12.0018 43.4266 10.8674 42.5354 9.96682C41.6442 9.06624 40.5259 8.61461 39.1791 8.61461C37.8322 8.61461 36.7139 9.0649 35.8227 9.96682C34.9316 10.8687 34.4853 12.0018 34.4853 13.3675C34.4853 14.7331 34.9316 15.8676 35.8227 16.7682Z" fill="white"/>
<path d="M60.8049 0H64.0134V20.7925H60.8049V18.654C59.5966 20.3369 57.864 21.1783 55.6071 21.1783C53.5667 21.1783 51.8247 20.4202 50.3798 18.9054C48.9335 17.3905 48.2117 15.5437 48.2117 13.3662C48.2117 11.1886 48.9348 9.31625 50.3798 7.81081C51.8247 6.30672 53.5681 5.55265 55.6071 5.55265C57.864 5.55265 59.5979 6.38468 60.8049 8.04738V0ZM52.7549 16.7682C53.646 17.6701 54.7644 18.1204 56.1112 18.1204C57.458 18.1204 58.5764 17.6701 59.4675 16.7682C60.3587 15.8676 60.8049 14.7331 60.8049 13.3675C60.8049 12.0018 60.3587 10.8674 59.4675 9.96682C58.5764 9.06624 57.458 8.61461 56.1112 8.61461C54.7644 8.61461 53.646 9.0649 52.7549 9.96682C51.8637 10.8687 51.4174 12.0018 51.4174 13.3675C51.4174 14.7331 51.8637 15.8676 52.7549 16.7682Z" fill="white"/>
<path d="M83.4727 20.8611H79.3287L74.4817 13.5825L76.6122 10.5596L83.4727 20.8611Z" fill="white"/>
<path d="M76.6122 10.5596L74.4817 13.5825L72.4682 10.5596L65.4961 0.0900269H69.6401L74.6 7.53658L76.6122 10.5596Z" fill="white"/>
<path d="M84.6581 0.0578003L77.2533 10.5596L75.1228 13.5826L62.1357 32H57.9917L73.1093 10.5596L75.2411 7.53661L80.5142 0.0578003H84.6581Z" fill="white"/>
</svg>
