<svg width="18" height="18" viewBox="0 0 18 18" fill="none" xmlns="http://www.w3.org/2000/svg">
<path d="M15.4396 0.43935C16.0254 -0.14645 16.9749 -0.14645 17.5607 0.43935C18.1464 1.02516 18.1465 1.97475 17.5607 2.56049L11.1211 9.00009L17.5607 15.4397C18.1464 16.0255 18.1465 16.9751 17.5607 17.5608C16.975 18.1464 16.0254 18.1464 15.4396 17.5608L9 11.1212L2.5604 17.5608C1.97464 18.1464 1.02501 18.1464 0.439259 17.5608C-0.14648 16.9751 -0.146357 16.0255 0.439259 15.4397L6.87886 9.00009L0.439259 2.56049C-0.146481 1.97475 -0.146359 1.02516 0.439259 0.43935C1.02506 -0.14645 1.9746 -0.14645 2.5604 0.43935L9 6.87797L15.4396 0.43935Z" fill="white"/>
</svg>
