<svg width="24" height="18" viewBox="0 0 24 18" fill="none" xmlns="http://www.w3.org/2000/svg">
<path d="M22.7197 7.71967C23.0126 7.42678 23.4874 7.42678 23.7803 7.71967C24.0732 8.01256 24.0732 8.48744 23.7803 8.78033L20.25 12.3107L16.7197 8.78033C16.4268 8.48744 16.4268 8.01256 16.7197 7.71967C17.0126 7.42678 17.4874 7.42678 17.7803 7.71967L19.5 9.43934L19.5 9C19.5 7.41616 18.9986 5.87297 18.0676 4.59161C17.1367 3.31025 15.824 2.35651 14.3176 1.86708C12.8113 1.37764 11.1887 1.37764 9.68237 1.86708C8.17605 2.35651 6.86333 3.31025 5.93237 4.59161C5.68891 4.92672 5.21988 5.001 4.88477 4.75754C4.54967 4.51407 4.47538 4.04504 4.71885 3.70993C5.836 2.1723 7.41126 1.02781 9.21885 0.440491C11.0264 -0.146831 12.9736 -0.146831 14.7812 0.440491C16.5887 1.02781 18.164 2.1723 19.2812 3.70993C20.3983 5.24756 21 7.09939 21 9L21 9.43934L22.7197 7.71967Z" fill="white"/>
<path d="M4.5 9C4.5 10.5838 5.00141 12.127 5.93237 13.4084C6.86333 14.6897 8.17605 15.6435 9.68237 16.1329C11.1887 16.6224 12.8113 16.6224 14.3176 16.1329C15.824 15.6435 17.1367 14.6897 18.0676 13.4084C18.3111 13.0733 18.7801 12.999 19.1152 13.2425C19.4503 13.4859 19.5246 13.955 19.2812 14.2901C18.164 15.8277 16.5887 16.9722 14.7812 17.5595C12.9736 18.1468 11.0264 18.1468 9.21885 17.5595C7.41126 16.9722 5.836 15.8277 4.71885 14.2901C3.6017 12.7524 3 10.9006 3 9L3 8.56066L1.28033 10.2803C0.987438 10.5732 0.512565 10.5732 0.219671 10.2803C-0.0732236 9.98744 -0.0732235 9.51256 0.219671 9.21967L3.75 5.68934L7.28033 9.21967C7.57322 9.51256 7.57322 9.98744 7.28033 10.2803C6.98744 10.5732 6.51257 10.5732 6.21967 10.2803L4.5 8.56066L4.5 9Z" fill="white"/>
</svg>
