<svg width="18" height="18" viewBox="0 0 18 18" fill="none" xmlns="http://www.w3.org/2000/svg">
<path d="M9.52574 2.45815C10.0084 1.97548 10.0084 1.1929 9.52574 0.710228C9.04307 0.227551 8.2605 0.227551 7.77782 0.710226L0.362007 8.12604C0.130217 8.35783 -3.9251e-07 8.6722 -3.78181e-07 9C-3.63853e-07 9.3278 0.130217 9.64217 0.362006 9.87396L7.77782 17.2898C8.2605 17.7725 9.04307 17.7725 9.52574 17.2898C10.0084 16.8071 10.0084 16.0245 9.52574 15.5419L4.21986 10.236L16.0676 10.236C16.7502 10.236 17.3036 9.68261 17.3036 9.00001C17.3036 8.3174 16.7502 7.76404 16.0676 7.76404L4.21986 7.76403L9.52574 2.45815Z" fill="white"/>
</svg>
