<svg width="16" height="16" viewBox="0 0 16 16" fill="none" xmlns="http://www.w3.org/2000/svg">
<path d="M12.9834 5.51607C12.8626 4.23092 12.1702 2.9739 11.1759 2.15462C10.2158 1.36546 9.1712 1 7.93334 1C7.63142 1.01205 7.33755 1.02811 7.04167 1.08634C6.03931 1.28715 5.01279 1.86546 4.31636 2.61245C4.28818 2.64056 4.26202 2.67068 4.23585 2.7008C4.20969 2.73092 4.18352 2.76104 4.15735 2.79116C4.13118 2.82128 4.10704 2.85141 4.08087 2.88354C4.05672 2.91366 4.03055 2.94578 4.00639 2.97791C3.98224 3.01004 3.95809 3.04217 3.93393 3.0743C3.90978 3.10643 3.88764 3.13855 3.8655 3.17068C3.84336 3.20281 3.82122 3.23695 3.79908 3.26908C3.77693 3.30321 3.7548 3.33534 3.73467 3.36948C3.71454 3.40361 3.6924 3.43775 3.67228 3.47189C3.65215 3.50602 3.63202 3.54016 3.61189 3.57631C3.59176 3.61044 3.57365 3.64659 3.55553 3.68072C3.53742 3.71486 3.5193 3.751 3.50119 3.78715C3.48307 3.82329 3.46697 3.85944 3.44885 3.89558C3.43275 3.93173 3.41665 3.96787 3.40055 4.00402C3.38445 4.04016 3.36834 4.0763 3.35425 4.11446C3.34016 4.15261 3.32406 4.18875 3.30997 4.2249C3.29588 4.26104 3.2818 4.2992 3.26972 4.33735C3.25563 4.3755 3.24355 4.41365 3.23148 4.4498C3.2194 4.48795 3.20732 4.5261 3.19726 4.56426C3.18518 4.60241 3.17511 4.64056 3.16505 4.67872C3.15499 4.71687 3.14492 4.75502 3.13486 4.79518C3.1248 4.83333 3.11674 4.87349 3.10869 4.91165C3.10064 4.9498 3.09259 4.98996 3.08454 5.02811C3.07649 5.06626 3.07045 5.10642 3.06441 5.14658C3.05837 5.18675 3.05233 5.2249 3.0463 5.26506C3.04026 5.30522 3.03623 5.34337 3.03221 5.38353C3.02818 5.4237 3.02415 5.46185 3.02013 5.50201C3.0161 5.54217 3.01409 5.58032 3.01007 5.62048C3.00805 5.66064 3.00604 5.7008 3.00403 5.73896C3.00202 5.77711 3.00201 5.81928 3 5.85743C3 5.89759 3 5.93775 3 5.9759C3 6.01606 3 6.05622 3.00201 6.09438C3.10064 8.68474 6.35732 12.8655 7.93736 14.9859L7.9756 15L8.01184 14.9679C8.47478 14.4096 8.89545 13.8032 9.33222 13.2249C10.8136 11.2651 13.2229 8.0743 12.9834 5.51607ZM9.81327 7.26305C9.41072 7.7751 8.84915 8.05221 8.21312 8.13052C8.20708 8.13052 8.20103 8.13253 8.19499 8.13454C7.59519 8.20482 7.00947 8.02811 6.5425 7.65261C6.51432 7.62851 6.48615 7.60442 6.45797 7.58032C6.42979 7.55623 6.40362 7.53012 6.37745 7.50402C6.35128 7.47791 6.32512 7.45181 6.30097 7.4237C6.27682 7.39558 6.25065 7.36747 6.22851 7.33936C6.20435 7.31125 6.18221 7.28112 6.16007 7.25301C6.13793 7.22289 6.11579 7.19277 6.09566 7.16265C6.07553 7.13253 6.05541 7.1004 6.03528 7.06827C6.01515 7.03614 5.99704 7.00402 5.97892 6.97189C5.96081 6.93976 5.94471 6.90562 5.9286 6.87349C5.9125 6.83936 5.8964 6.80723 5.88231 6.77309C5.86822 6.73896 5.85413 6.70482 5.84206 6.66867C5.82998 6.63253 5.8179 6.59839 5.80582 6.56426C5.79374 6.52811 5.78368 6.49397 5.77563 6.45783C5.76758 6.42169 5.75751 6.38554 5.74946 6.3494C5.74141 6.31325 5.73537 6.27711 5.72933 6.24096C5.7233 6.20482 5.71928 6.16667 5.71525 6.13052C5.65084 5.50602 5.84406 4.83534 6.24662 4.35341C6.63911 3.88353 7.19263 3.62249 7.79445 3.56426C8.37212 3.5241 8.91155 3.69277 9.37247 4.04217C9.85756 4.41165 10.2078 4.94779 10.2843 5.56024C10.3567 6.1506 10.1897 6.79719 9.82133 7.26707L9.81327 7.26305Z" fill="white" fill-opacity="0.72"/>
</svg>
