<svg width="28" height="28" viewBox="0 0 28 28" fill="none" xmlns="http://www.w3.org/2000/svg">
<path d="M0.725422 13.2218C0.239262 12.7237 0.00763602 12.0587 0.0878142 11.3948C0.880687 4.89883 6.86223 0 14.0006 0C21.139 0 27.1359 4.89883 27.9135 11.396C27.9924 12.0587 27.7595 12.7248 27.2733 13.2218C26.7897 13.7165 26.0986 14 25.3758 14H2.62552C1.90137 14 1.20904 13.7165 0.725422 13.2218ZM1.27394 18.6678H13.9994L17.237 21.6358C17.909 22.2518 18.9971 22.2518 19.6691 21.6358L22.9068 18.6678H26.7261C27.4286 18.6678 27.9987 18.1452 27.9987 17.5012C27.9987 16.8572 27.4286 16.3345 26.7261 16.3345H25.4521H1.27267C0.570156 16.3345 0 16.8572 0 17.5012C0 18.1452 0.571429 18.6678 1.27394 18.6678ZM25.4547 21.0012H23.9618L21.4687 23.2855C20.6376 24.0473 19.5444 24.4277 18.4524 24.4277C17.3605 24.4277 16.2685 24.0473 15.4375 23.2855L12.9443 21H2.54661C1.14286 21 0.00127258 22.0465 0.00127258 23.3333C0.00127258 25.907 2.28444 28 5.09195 28H22.9093C25.7168 28 28 25.907 28 23.3333C28 22.0465 26.8584 21.0012 25.4547 21.0012Z" fill="#EF9C56"/>
</svg>
