<svg width="28" height="28" viewBox="0 0 28 28" fill="none" xmlns="http://www.w3.org/2000/svg">
<path d="M11.6329 9.33332L8.92918 0H12.1436C12.7721 -2.06927e-06 13.389 0.16945 13.9294 0.490539C14.4698 0.811628 14.9138 1.27249 15.2146 1.82466L18.9863 9.33332H11.6329ZM24.5023 11.6667H5.83252L2.81631 8.64616C2.53916 8.3539 2.16383 8.17446 1.76247 8.14232C1.36111 8.11019 0.962044 8.22763 0.641973 8.47207C0.321902 8.71651 0.103414 9.0707 0.0285029 9.46657C-0.046408 9.86244 0.0275451 10.272 0.236148 10.6167L3.99038 17.5H12.3243L8.20166 28H11.7728C12.3894 28.0024 12.9955 27.8401 13.5284 27.5298C14.0613 27.2195 14.5017 26.7724 14.8042 26.2348L20.1522 17.5H28V15.1667C28 14.2384 27.6315 13.3482 26.9755 12.6918C26.3196 12.0354 25.4299 11.6667 24.5023 11.6667Z" fill="#6ACEE5"/>
</svg>
