<svg width="40" height="28" viewBox="0 0 40 28" fill="none" xmlns="http://www.w3.org/2000/svg">
<path fill-rule="evenodd" clip-rule="evenodd" d="M17.5834 17.2879C19.7941 19.1801 20.695 21.54 22.1704 23.8835C24.9169 28.2443 29.7377 28.4889 34.0618 27.5591C36.4723 27.048 38.6003 25.9769 39.5791 24.3674C40.1829 23.3832 40.2267 21.5073 39.1116 20.9527C39.1019 20.9527 39.1019 20.9527 39.0921 20.9419C38.5078 21.404 37.748 21.8118 36.9153 22.1381C34.9383 22.9156 32.4744 23.2908 30.7214 23.0461C30.4877 23.0135 30.3171 22.7743 30.3512 22.5133C30.3804 22.2523 30.5947 22.062 30.8284 22.1C32.4597 22.3338 34.7778 21.9695 36.6331 21.2463C37.1833 21.0343 37.6799 20.795 38.1085 20.5286C38.0598 20.5069 38.0112 20.4851 37.9625 20.4634C36.9496 19.9903 34.0569 18.9409 33.5164 18.0383C33.2145 17.5381 33.2195 17.5109 32.6985 17.5924L31.7586 17.7338C31.2326 17.8099 31.0477 17.0433 31.5103 16.8801L32.7762 16.6844C33.0002 16.6518 33.1609 16.4343 33.1609 16.1896C33.1609 16.1678 33.1609 16.1406 33.1609 16.1189C33.1268 15.847 32.8979 15.6513 32.6545 15.6893L31.0136 15.9449C31.0136 15.9449 30.9795 15.9449 30.9649 15.9449C30.7652 15.9449 30.5949 15.7818 30.5657 15.5534C30.5364 15.3359 30.658 15.1293 30.8381 15.0586L32.0898 14.8629C32.3138 14.8302 32.4745 14.6127 32.4745 14.3681C32.4745 14.3463 32.4745 14.3191 32.4745 14.2974C32.4404 14.0255 32.2115 13.8298 31.968 13.8678L31.7246 13.9059L30.2197 14.1397C30.2197 14.1397 30.1809 14.1397 30.1614 14.1397C29.9618 14.1397 29.7865 13.9766 29.7572 13.7482C29.728 13.5144 29.8644 13.2969 30.0592 13.2425L31.4518 13.025C31.6953 12.987 31.8656 12.7314 31.8315 12.4595C31.7975 12.1877 31.5686 11.9974 31.3251 12.0354L29.5917 12.3073C29.3921 12.3073 29.2215 12.1442 29.1923 11.9158C29.1631 11.6929 29.2897 11.4808 29.4748 11.421L30.7846 11.2144C31.0086 11.1818 31.1694 10.9643 31.1694 10.7196C31.1694 10.6978 31.1694 10.6706 31.1694 10.6489C31.1353 10.377 30.9064 10.1813 30.6629 10.2193L29.056 10.4695H29.0463C28.8515 10.4695 28.6761 10.3009 28.6468 10.078C28.6176 9.86591 28.7345 9.66473 28.9098 9.5886L30.2004 9.38742C30.4439 9.34936 30.619 9.0938 30.5849 8.8165C30.5508 8.54463 30.3222 8.35432 30.0787 8.39238L30.0152 8.40326C29.6841 7.22335 29.3676 6.02169 29.0511 4.82002C28.4326 2.48195 26.0806 3.74886 24.7902 4.6134C23.8455 5.12995 23.0859 5.14627 22.5162 4.66234C21.7711 4.0316 21.7078 3.10725 21.5958 2.26989C21.3377 0.355937 19.8914 -0.530355 18.4013 0.328751C19.161 0.981236 19.088 1.88384 19.0052 2.87888C18.9322 3.77605 18.8494 4.77653 19.7989 5.61932C19.9986 5.79332 20.2422 5.92925 20.5246 6.02169C20.8265 6.11956 21.177 6.17393 21.552 6.17393C22.0536 6.17393 22.6232 6.04344 23.1979 5.90206C24.1669 5.66826 25.131 5.43989 25.9686 5.80963C26.3874 5.9945 26.7382 6.30443 27.0157 6.77748C27.2738 7.21247 27.4588 7.77796 27.5659 8.50113C27.6049 8.76212 27.449 9.00681 27.2152 9.0503C26.9815 9.0938 26.7625 8.91981 26.7235 8.65881C26.6359 8.07701 26.4946 7.63115 26.2998 7.30491C26.1294 7.01129 25.9102 6.81554 25.6521 6.70136C25.0532 6.44036 24.2205 6.64155 23.3781 6.84273C22.7597 6.99498 22.1413 7.14179 21.5472 7.13635C21.0944 7.13635 20.6706 7.0711 20.2859 6.94604C19.8963 6.81554 19.5555 6.63067 19.2682 6.37512C17.9583 5.21152 18.0653 3.93917 18.1578 2.79732C18.2211 2.04696 18.2749 1.37816 17.5931 0.932298C16.4293 1.93278 15.2313 3.61293 14.0675 6.77204C12.4508 7.46803 11.5987 9.10468 11.5257 10.203C11.2822 13.8841 15.5187 15.499 17.5931 17.2716L17.5834 17.2879ZM17.1694 15.0532C18.8251 14.8737 19.7502 15.7383 19.9937 17.2771C19.1366 16.3201 18.304 15.6295 17.1694 15.0532ZM14.5984 8.09876C15.1292 10.3063 16.7652 10.8446 18.6643 11.7255C20.0229 12.3562 20.8654 13.3893 21.6007 14.591C23.1054 17.0541 24.1815 19.1638 25.2479 20.8222C27.2542 23.9433 29.2799 25.0145 32.825 24.9818C35.2451 24.9601 37.6264 24.1717 38.7074 22.5731C38.0695 26.4771 30.0445 26.8197 27.6584 25.9877C25.9882 25.4114 24.4446 24.3402 23.4268 22.4915L21.703 19.365C21.2258 18.5005 21.3328 17.7555 21.0893 16.8203C20.4514 14.3517 18.5719 13.335 16.1128 14.069C15.8157 13.8733 15.5284 13.6721 15.2411 13.4546C15.6355 13.2969 16.1127 13.1175 16.6727 12.9217C16.4487 12.7858 16.2442 12.6444 16.0445 12.4922L14.6324 12.9707C14.4133 12.7803 14.2039 12.5792 14.0042 12.3671C14.3986 12.204 14.8807 12.0246 15.4456 11.8288C15.2216 11.6983 15.0122 11.5515 14.8174 11.3993L13.5513 11.8288C13.4003 11.6331 13.2836 11.4373 13.191 11.247L14.3452 10.8011C14.1747 10.6815 13.9654 10.4477 13.868 10.3498L12.9816 10.638C12.8306 9.78435 13.6098 8.74581 14.5934 8.09332L14.5984 8.09876Z" fill="#73D87F"/>
<path d="M17.5753 0.93821C17.5753 0.93821 17.5851 0.93821 17.5851 0.949085C17.775 0.780526 17.9696 0.633716 18.1595 0.497781C18.2374 0.443407 18.3156 0.394472 18.3935 0.345535C18.3837 0.345535 18.3787 0.334661 18.369 0.329224C18.0914 0.50322 17.8284 0.70984 17.5703 0.93821H17.5753Z" fill="#73D87F"/>
<path d="M38.1128 20.5177C38.4488 20.6645 38.7846 20.7896 39.0962 20.9418C39.1108 20.931 39.1255 20.9201 39.1352 20.9092C38.8382 20.757 38.507 20.621 38.1515 20.496C38.1418 20.5068 38.1274 20.5123 38.1128 20.5177Z" fill="#73D87F"/>
<path d="M16.9225 20.6205C17.239 20.6205 17.4922 20.3323 17.4922 19.9843C17.4922 19.6309 17.2342 19.3481 16.9225 19.3481H5.67859C5.36207 19.3481 5.10889 19.6363 5.10889 19.9843C5.10889 20.3377 5.36693 20.6205 5.67859 20.6205H16.9225Z" fill="#73D87F"/>
<path d="M20.0629 25.0094C20.3794 25.0094 20.6326 24.7212 20.6326 24.3732C20.6326 24.0198 20.3746 23.7371 20.0629 23.7371H8.81921C8.50269 23.7371 8.24951 24.0252 8.24951 24.3732C8.24951 24.7212 8.50756 25.0094 8.81921 25.0094H20.0629Z" fill="#73D87F"/>
<path d="M11.8134 16.2333C12.1299 16.2333 12.3831 15.9451 12.3831 15.5971C12.3831 15.2491 12.1251 14.9609 11.8134 14.9609H0.569699C0.253178 14.9609 0 15.2491 0 15.5971C0 15.9505 0.258048 16.2333 0.569699 16.2333H11.8134Z" fill="#73D87F"/>
</svg>
