<svg width="32" height="28" viewBox="0 0 32 28" fill="none" xmlns="http://www.w3.org/2000/svg">
<path fill-rule="evenodd" clip-rule="evenodd" d="M9.58113 0.0856017C8.71892 0.315573 7.99803 0.959495 7.55475 1.89471C7.26248 2.50286 7.19426 2.87081 7.16503 3.92357C7.13093 5.06832 7.20889 5.67647 7.54988 6.71901C7.81292 7.55713 8.10513 8.1806 8.58251 8.93696C9.56649 10.4752 10.7453 11.1907 12.0118 11.022C13.7314 10.8023 14.7641 8.9063 14.6082 6.2284C14.4816 3.99512 13.7752 2.11957 12.6207 0.974825C12.1336 0.484218 11.7099 0.213363 11.2374 0.0804901C10.8331 -0.02683 9.98056 -0.02683 9.58113 0.0804901V0.0856017Z" fill="#E8496F"/>
<path fill-rule="evenodd" clip-rule="evenodd" d="M20.2001 0.0599183C19.0262 0.300111 17.8863 1.6135 17.2823 3.41239C16.6637 5.2675 16.5905 7.63365 17.0971 9.06459C17.2384 9.47854 17.7012 10.1736 17.9935 10.424C18.1153 10.5313 18.3783 10.6999 18.578 10.8022C18.88 10.9657 19.0262 11.0015 19.4597 11.0168C20.0784 11.0475 20.4826 10.9606 20.999 10.6948C21.9976 10.1685 22.928 8.98282 23.5515 7.43946C24.0386 6.22316 24.2822 4.94554 24.2335 3.82123C24.1799 2.52317 23.8146 1.62373 23.045 0.862264C22.6553 0.478978 22.2119 0.208121 21.7589 0.09058C21.3838 -0.0116297 20.6142 -0.0269599 20.205 0.0599183H20.2001Z" fill="#E8496F"/>
<path fill-rule="evenodd" clip-rule="evenodd" d="M2.28944 8.06786C1.73412 8.22629 1.36877 8.45115 0.940107 8.90087C0.263011 9.61634 0 10.3574 0 11.5685C0 12.376 0.150974 13.1324 0.452988 13.858C1.23725 15.7285 2.81066 17.2667 4.36944 17.6858C4.9345 17.834 5.29499 17.834 5.85031 17.6858C6.41049 17.5376 6.74659 17.3332 7.17526 16.8783C8.62687 15.335 8.26642 12.2636 6.3423 9.7952C5.2609 8.40515 3.60953 7.69991 2.28944 8.06786Z" fill="#E8496F"/>
<path fill-rule="evenodd" clip-rule="evenodd" d="M27.4166 8.09346C26.6518 8.30299 25.9942 8.72716 25.3317 9.44774C24.5962 10.2552 24.148 10.9758 23.7632 11.9876C23.4271 12.882 23.315 13.5412 23.3491 14.5429C23.3881 15.749 23.5926 16.2907 24.2941 16.9857C25.2488 17.9465 26.6713 18.0589 28.0157 17.2923C29.935 16.1987 31.3719 13.8785 31.4937 11.6963C31.5863 9.94856 30.6413 8.46141 29.1945 8.06791C28.7366 7.94014 27.9183 7.96059 27.4166 8.09857V8.09346Z" fill="#E8496F"/>
<path fill-rule="evenodd" clip-rule="evenodd" d="M14.7552 13.0354C14.0635 13.1938 13.4399 13.4953 12.8116 13.991C11.925 14.6758 8.89015 18.0692 7.35086 20.0878C6.02589 21.8356 5.47549 22.9804 5.32449 24.2989C5.21732 25.2545 5.36346 25.9649 5.82136 26.6753C6.12337 27.1505 6.44977 27.4367 6.94663 27.6871C7.45323 27.9426 7.91109 28.0346 8.49076 27.9886C9.35296 27.9222 9.89365 27.7076 11.5206 26.7519C12.5192 26.1642 13.591 25.6787 14.2827 25.4845C14.8331 25.3363 15.9485 25.2699 16.499 25.367C17.4976 25.5305 18.6667 26.0467 20.5811 27.1659C21.8281 27.8967 22.7584 28.1317 23.6694 27.9273C24.2831 27.7893 24.78 27.5185 25.1892 27.079C25.7786 26.4657 26.0709 25.7043 26.0709 24.769C26.0709 22.7351 24.8142 20.742 20.5762 16.071C19.1002 14.4459 18.4621 13.8684 17.6389 13.4391C17.3856 13.3113 17.0252 13.158 16.84 13.1018C16.3675 12.9689 15.2228 12.9332 14.7552 13.0354Z" fill="#E8496F"/>
</svg>
