<svg width="28" height="28" viewBox="0 0 28 28" fill="none" xmlns="http://www.w3.org/2000/svg">
<g clip-path="url(#clip0_1959_322)">
<path d="M24.5 0H15.1667C13.237 0 11.6667 1.57033 11.6667 3.5V7.58217C11.9222 7.71867 12.1695 7.875 12.4052 8.05934L16.3333 11.1347V10.5012H18.6667V12.9605L18.7612 13.034C20.1845 14.147 21 15.8223 21 17.6283V19.8345H23.3333V22.1678H21V28.0012H28V3.5C28 1.57033 26.4297 0 24.5 0ZM18.6667 8.16667H16.3333V5.83334H18.6667V8.16667ZM23.3333 17.5H21V15.1667H23.3333V17.5ZM23.3333 12.8333H21V10.5H23.3333V12.8333ZM23.3333 8.16667H21V5.83334H23.3333V8.16667ZM17.3238 14.8715L10.9678 9.89567C10.0065 9.14317 8.66133 9.142 7.7 9.89567L1.34283 14.8703C0.49 15.5388 0 16.5445 0 17.6272V28H18.6667V17.6272C18.6667 16.5433 18.1767 15.5388 17.3238 14.8715ZM11.6667 22.1667H7V17.5H11.6667V22.1667Z" fill="#A080FA"/>
</g>
<defs>
<clipPath id="clip0_1959_322">
<rect width="28" height="28" fill="white"/>
</clipPath>
</defs>
</svg>
