<svg width="20" height="20" viewBox="0 0 20 20" fill="none" xmlns="http://www.w3.org/2000/svg">
<path d="M11.0099 2.43856C11.5678 1.88068 11.5678 0.976178 11.0099 0.418297C10.4521 -0.139585 9.54755 -0.139585 8.98967 0.418295L0.41841 8.98956C0.150505 9.25746 -4.53666e-07 9.62082 -4.37105e-07 9.99969C-4.20544e-07 10.3786 0.150506 10.7419 0.418409 11.0098L8.98967 19.5811C9.54755 20.139 10.4521 20.139 11.0099 19.5811C11.5678 19.0232 11.5678 18.1187 11.0099 17.5608L4.87735 11.4282L18.5711 11.4282C19.36 11.4282 19.9996 10.7887 19.9996 9.99969C19.9996 9.21073 19.36 8.57115 18.5711 8.57115L4.87735 8.57115L11.0099 2.43856Z" fill="white"/>
</svg>
