<svg width="5" height="20" viewBox="0 0 5 20" fill="none" xmlns="http://www.w3.org/2000/svg">
<path d="M2.38095 15.2381C3.69592 15.2381 4.7619 16.3041 4.7619 17.619C4.7619 18.934 3.69592 20 2.38095 20C1.06599 20 0 18.934 0 17.619C0 16.3041 1.06599 15.2381 2.38095 15.2381Z" fill="white"/>
<path d="M4.7619 10C4.7619 8.68504 3.69592 7.61905 2.38095 7.61905C1.06599 7.61905 0 8.68504 0 10C0 11.315 1.06599 12.381 2.38095 12.381C3.69592 12.381 4.7619 11.315 4.7619 10Z" fill="white"/>
<path d="M4.7619 2.38095C4.7619 1.06599 3.69592 -1.69631e-07 2.38095 -1.09278e-07C1.06599 -4.89257e-08 0 1.06599 0 2.38095C0 3.69592 1.06599 4.7619 2.38095 4.7619C3.69592 4.7619 4.7619 3.69592 4.7619 2.38095Z" fill="white"/>
</svg>
