<svg width="16" height="16" viewBox="0 0 16 16" fill="none" xmlns="http://www.w3.org/2000/svg">
<path fill-rule="evenodd" clip-rule="evenodd" d="M15.2248 1.407C15.267 1.27929 15.2551 1.14393 15.1985 1.02907C15.1746 0.980497 15.1427 0.93559 15.1036 0.896475C15.0642 0.857007 15.0188 0.824915 14.9698 0.800939C14.855 0.744828 14.72 0.733176 14.5926 0.77548C14.5871 0.777283 14.5817 0.779181 14.5763 0.781174L0.829129 5.78018C0.634263 5.85104 0.503354 6.03482 0.500063 6.24214C0.496773 6.44946 0.621787 6.63731 0.814305 6.71431L6.86535 9.13473L9.28576 15.1858C9.36277 15.3783 9.55061 15.5033 9.75793 15.5C9.96526 15.4967 10.149 15.3658 10.2199 15.1709L15.2188 1.42399C15.2209 1.41835 15.2229 1.41269 15.2248 1.407ZM14.1036 2.60361C14.2988 2.40835 14.2988 2.09177 14.1036 1.89651C13.9083 1.70125 13.5917 1.70125 13.3964 1.89651L7.14645 8.14651C6.95118 8.34177 6.95118 8.65835 7.14645 8.85361C7.34171 9.04888 7.65829 9.04888 7.85355 8.85361L14.1036 2.60361Z" fill="white" fill-opacity="0.72"/>
</svg>
