<svg width="20" height="20" viewBox="0 0 20 20" fill="none" xmlns="http://www.w3.org/2000/svg">
<path d="M8.30924 6.66666L6.37799 0H8.674C9.12293 -1.47805e-06 9.56356 0.121036 9.94957 0.350385C10.3356 0.579734 10.6527 0.908921 10.8676 1.30333L13.5617 6.66666H8.30924ZM17.5016 8.33332H4.16609L2.01165 6.17583C1.81368 5.96707 1.54559 5.8389 1.25891 5.81594C0.972222 5.79299 0.687175 5.87688 0.458552 6.05148C0.22993 6.22608 0.073867 6.47907 0.0203592 6.76184C-0.0331485 7.0446 0.0196751 7.33717 0.168677 7.58333L2.85027 12.5H8.80309L5.85833 20H8.40917C8.84958 20.0017 9.28248 19.8858 9.66313 19.6642C10.0438 19.4425 10.3584 19.1232 10.5744 18.7391L14.3945 12.5H20V10.8333C20 10.1703 19.7368 9.5344 19.2682 9.06556C18.7997 8.59672 18.1642 8.33332 17.5016 8.33332Z" fill="white"/>
</svg>
