<svg width="24" height="17" viewBox="0 0 24 17" fill="none" xmlns="http://www.w3.org/2000/svg">
<path fill-rule="evenodd" clip-rule="evenodd" d="M10.5508 10.3728C11.8773 11.5081 12.4178 12.924 13.3031 14.3301C14.9509 16.9466 17.8434 17.0934 20.4379 16.5355C21.8842 16.2288 23.161 15.5861 23.7483 14.6204C24.1105 14.0299 24.1369 12.9044 23.4678 12.5716C23.4619 12.5716 23.4619 12.5716 23.4561 12.5651C23.1055 12.8424 22.6496 13.0871 22.15 13.2828C20.9638 13.7494 19.4855 13.9745 18.4336 13.8277C18.2934 13.8081 18.1911 13.6645 18.2115 13.508C18.229 13.3514 18.3576 13.2372 18.4978 13.26C19.4766 13.4003 20.8675 13.1817 21.9807 12.7478C22.3108 12.6206 22.6088 12.477 22.8659 12.3172C22.8367 12.3041 22.8075 12.2911 22.7783 12.278C22.1706 11.9942 20.4349 11.3645 20.1106 10.823C19.9295 10.5228 19.9325 10.5065 19.6199 10.5555L19.0559 10.6403C18.7404 10.686 18.6294 10.226 18.907 10.1281L19.6665 10.0106C19.8009 9.99106 19.8974 9.86056 19.8974 9.71375C19.8974 9.7007 19.8974 9.68439 19.8974 9.67134C19.8769 9.50822 19.7396 9.39077 19.5935 9.41361L18.609 9.56694C18.609 9.56694 18.5885 9.56694 18.5797 9.56694C18.4599 9.56694 18.3577 9.46907 18.3402 9.33205C18.3227 9.20155 18.3956 9.07758 18.5037 9.03517L19.2547 8.91772C19.3891 8.89814 19.4855 8.76764 19.4855 8.62084C19.4855 8.60779 19.4855 8.59147 19.4855 8.57843C19.465 8.4153 19.3277 8.29786 19.1816 8.32069L19.0355 8.34353L18.1326 8.48381C18.1326 8.48381 18.1094 8.48381 18.0977 8.48381C17.9779 8.48381 17.8727 8.38594 17.8551 8.24892C17.8376 8.10863 17.9195 7.97814 18.0363 7.94551L18.8719 7.81502C19.018 7.79218 19.1202 7.63885 19.0997 7.47573C19.0793 7.3126 18.9419 7.19842 18.7959 7.22125L17.7558 7.38438C17.6361 7.38438 17.5337 7.28651 17.5162 7.14948C17.4986 7.01572 17.5746 6.88849 17.6857 6.8526L18.4716 6.72863C18.606 6.70905 18.7024 6.57856 18.7024 6.43175C18.7024 6.4187 18.7024 6.40239 18.7024 6.38934C18.682 6.22622 18.5446 6.10877 18.3985 6.13161L17.4344 6.28168H17.4286C17.3117 6.28168 17.2064 6.18054 17.1889 6.04678C17.1714 5.91955 17.2415 5.79884 17.3467 5.75316L18.1211 5.63245C18.2671 5.60962 18.3722 5.45628 18.3517 5.2899C18.3313 5.12678 18.1941 5.01259 18.048 5.03543L18.0099 5.04196C17.8113 4.33401 17.6213 3.61301 17.4314 2.89201C17.0604 1.48917 15.6492 2.24932 14.8749 2.76804C14.3081 3.07797 13.8523 3.08776 13.5105 2.7974C13.0635 2.41896 13.0254 1.86435 12.9582 1.36194C12.8034 0.213562 11.9356 -0.318213 11.0416 0.19725C11.4974 0.588742 11.4536 1.1303 11.4039 1.72733C11.3601 2.26563 11.3104 2.86592 11.8801 3.37159C11.9999 3.47599 12.1461 3.55755 12.3155 3.61301C12.4967 3.67173 12.707 3.70436 12.932 3.70436C13.2329 3.70436 13.5747 3.62606 13.9195 3.54124C14.5009 3.40095 15.0794 3.26393 15.582 3.48578C15.8332 3.5967 16.0437 3.78266 16.2102 4.06649C16.3651 4.32748 16.4761 4.66677 16.5404 5.10068C16.5637 5.25727 16.4702 5.40408 16.3299 5.43018C16.1897 5.45628 16.0583 5.35188 16.0349 5.19529C15.9823 4.84621 15.8976 4.57869 15.7807 4.38294C15.6784 4.20677 15.5469 4.08932 15.3921 4.02081C15.0327 3.86422 14.5331 3.98493 14.0276 4.10564C13.6566 4.19699 13.2856 4.28507 12.9291 4.28181C12.6574 4.28181 12.4031 4.24266 12.1723 4.16762C11.9386 4.08933 11.7341 3.9784 11.5617 3.82507C10.7758 3.12691 10.84 2.3635 10.8955 1.67839C10.9335 1.22818 10.9657 0.826898 10.5567 0.559379C9.85837 1.15967 9.13955 2.16776 8.44126 4.06323C7.47124 4.48082 6.96002 5.46281 6.91619 6.12182C6.77011 8.33048 9.312 9.29942 10.5567 10.363L10.5508 10.3728ZM10.3024 9.0319C11.2958 8.92424 11.8509 9.44297 11.997 10.3662C11.4828 9.79205 10.9832 9.37772 10.3024 9.0319ZM8.75982 4.85926C9.07829 6.1838 10.0599 6.50678 11.1994 7.0353C12.0145 7.41374 12.5201 8.0336 12.9612 8.7546C13.8641 10.2325 14.5097 11.4983 15.1495 12.4933C16.3533 14.366 17.5688 15.0087 19.6958 14.9891C21.1479 14.976 22.5766 14.503 23.2252 13.5438C22.8425 15.8863 18.0275 16.0918 16.5959 15.5926C15.5937 15.2468 14.6675 14.6041 14.0569 13.4949L13.0226 11.619C12.7363 11.1003 12.8005 10.6533 12.6544 10.0922C12.2716 8.61105 11.1439 8.00098 9.66844 8.4414C9.49022 8.32396 9.31782 8.20325 9.14544 8.07275C9.3821 7.97814 9.66841 7.87048 10.0044 7.75303C9.87001 7.67147 9.74729 7.58665 9.6275 7.4953L8.78022 7.78239C8.64875 7.66821 8.5231 7.5475 8.40331 7.42026C8.63997 7.32239 8.92921 7.21473 9.26813 7.09728C9.13373 7.01898 9.00808 6.9309 8.89122 6.83955L8.13154 7.09728C8.04096 6.97984 7.97092 6.86239 7.9154 6.7482L8.60789 6.48068C8.50563 6.40891 8.38 6.26863 8.32156 6.2099L7.78972 6.38281C7.69914 5.87061 8.16664 5.24749 8.75683 4.85599L8.75982 4.85926Z" fill="white"/>
<path d="M10.546 0.562657C10.546 0.562657 10.5518 0.562657 10.5518 0.569182C10.6658 0.468047 10.7825 0.379961 10.8965 0.2984C10.9432 0.265776 10.9901 0.236414 11.0369 0.207053C11.031 0.207053 11.028 0.200528 11.0222 0.197266C10.8556 0.301663 10.6978 0.425635 10.543 0.562657H10.546Z" fill="white"/>
<path d="M22.8672 12.3109C23.0688 12.399 23.2702 12.474 23.4572 12.5654C23.466 12.5588 23.4748 12.5523 23.4806 12.5458C23.3024 12.4544 23.1037 12.3729 22.8904 12.2979C22.8846 12.3044 22.876 12.3076 22.8672 12.3109Z" fill="white"/>
<path d="M10.1526 12.3723C10.3426 12.3723 10.4945 12.1994 10.4945 11.9906C10.4945 11.7785 10.3396 11.6089 10.1526 11.6089H3.40627C3.21636 11.6089 3.06445 11.7818 3.06445 11.9906C3.06445 12.2026 3.21928 12.3723 3.40627 12.3723H10.1526Z" fill="white"/>
<path d="M12.0373 15.0056C12.2272 15.0056 12.3791 14.8327 12.3791 14.6239C12.3791 14.4118 12.2243 14.2422 12.0373 14.2422H5.29104C5.10113 14.2422 4.94922 14.4151 4.94922 14.6239C4.94922 14.8327 5.10405 15.0056 5.29104 15.0056H12.0373Z" fill="white"/>
<path d="M7.08805 9.73997C7.27797 9.73997 7.42987 9.56706 7.42987 9.35827C7.42987 9.14947 7.27504 8.97656 7.08805 8.97656H0.34182C0.151907 8.97656 0 9.14947 0 9.35827C0 9.57032 0.154829 9.73997 0.34182 9.73997H7.08805Z" fill="white"/>
</svg>
