<svg width="20" height="20" viewBox="0 0 20 20" fill="none" xmlns="http://www.w3.org/2000/svg">
<g clip-path="url(#clip0_2154_2661)">
<path d="M17.5 0H10.8333C9.455 0 8.33333 1.12167 8.33333 2.5V5.41583C8.51583 5.51333 8.6925 5.625 8.86083 5.75667L11.6667 7.95334V7.50084H13.3333V9.2575L13.4008 9.31C14.4175 10.105 15 11.3017 15 12.5917V14.1675H16.6667V15.8342H15V20.0008H20V2.5C20 1.12167 18.8783 0 17.5 0ZM13.3333 5.83333H11.6667V4.16667H13.3333V5.83333ZM16.6667 12.5H15V10.8333H16.6667V12.5ZM16.6667 9.16667H15V7.5H16.6667V9.16667ZM16.6667 5.83333H15V4.16667H16.6667V5.83333ZM12.3742 10.6225L7.83417 7.06834C7.1475 6.53084 6.18667 6.53 5.5 7.06834L0.959167 10.6217C0.35 11.0992 0 11.8175 0 12.5908V20H13.3333V12.5908C13.3333 11.8167 12.9833 11.0992 12.3742 10.6225ZM8.33333 15.8333H5V12.5H8.33333V15.8333Z" fill="white"/>
</g>
<defs>
<clipPath id="clip0_2154_2661">
<rect width="20" height="20" fill="white"/>
</clipPath>
</defs>
</svg>
