<svg width="24" height="22" viewBox="0 0 24 22" fill="none" xmlns="http://www.w3.org/2000/svg">
<path fill-rule="evenodd" clip-rule="evenodd" d="M7.29954 0.0652199C6.64262 0.240435 6.09337 0.731039 5.75563 1.44358C5.53295 1.90693 5.48097 2.18727 5.4587 2.98937C5.43272 3.86155 5.49212 4.3249 5.75192 5.11921C5.95233 5.75777 6.17497 6.2328 6.53868 6.80906C7.28839 7.98106 8.18656 8.52618 9.15152 8.39769C10.4616 8.23026 11.2485 6.7857 11.1297 4.74542C11.0332 3.04388 10.495 1.6149 9.61545 0.742719C9.24431 0.368926 8.92147 0.162561 8.56147 0.0613254C8.25342 -0.0204418 7.60387 -0.0204418 7.29954 0.0613254V0.0652199Z" fill="white"/>
<path fill-rule="evenodd" clip-rule="evenodd" d="M15.3909 0.0460703C14.4964 0.229073 13.628 1.22975 13.1678 2.60032C12.6964 4.01372 12.6407 5.8165 13.0267 6.90672C13.1343 7.22211 13.4869 7.75165 13.7096 7.94244C13.8024 8.02421 14.0028 8.1527 14.155 8.23058C14.3851 8.35517 14.4964 8.38243 14.8267 8.39411C15.2981 8.41747 15.6061 8.35128 15.9995 8.14881C16.7603 7.74776 17.4692 6.84443 17.9443 5.66854C18.3154 4.74184 18.501 3.76842 18.4639 2.91182C18.4231 1.92282 18.1448 1.23753 17.5584 0.657377C17.2615 0.365352 16.9237 0.158986 16.5785 0.0694314C16.2927 -0.00844209 15.7063 -0.0201222 15.3946 0.0460703H15.3909Z" fill="white"/>
<path fill-rule="evenodd" clip-rule="evenodd" d="M1.74434 6.1469C1.32124 6.2676 1.04288 6.43892 0.716274 6.78156C0.20039 7.32668 0 7.89126 0 8.81406C0 9.42926 0.115028 10.0055 0.345135 10.5584C0.94267 11.9835 2.14147 13.1555 3.32911 13.4748C3.75963 13.5877 4.03429 13.5877 4.45739 13.4748C4.8842 13.3619 5.14028 13.2061 5.46688 12.8596C6.57288 11.6837 6.29825 9.3436 4.83225 7.46296C4.00832 6.40388 2.75013 5.86655 1.74434 6.1469Z" fill="white"/>
<path fill-rule="evenodd" clip-rule="evenodd" d="M20.8887 6.16644C20.306 6.32608 19.8049 6.64926 19.3002 7.19827C18.7398 7.81347 18.3983 8.36248 18.1051 9.13342C17.849 9.81482 17.7636 10.3171 17.7896 11.0803C17.8193 11.9992 17.9752 12.4119 18.5096 12.9414C19.237 13.6735 20.3208 13.7591 21.3452 13.1751C22.8074 12.3418 23.9023 10.5741 23.9951 8.91149C24.0656 7.57985 23.3456 6.44679 22.2433 6.14698C21.8944 6.04963 21.2709 6.06521 20.8887 6.17034V6.16644Z" fill="white"/>
<path fill-rule="evenodd" clip-rule="evenodd" d="M11.2421 9.93171C10.715 10.0524 10.24 10.2821 9.76121 10.6598C9.08574 11.1816 6.77346 13.767 5.60066 15.305C4.59116 16.6366 4.1718 17.5088 4.05675 18.5134C3.9751 19.2415 4.08645 19.7827 4.43532 20.3239C4.66543 20.686 4.91411 20.9041 5.29267 21.0949C5.67866 21.2896 6.0275 21.3597 6.46916 21.3246C7.12608 21.274 7.53803 21.1105 8.77764 20.3823C9.53847 19.9346 10.355 19.5647 10.8821 19.4167C11.3014 19.3038 12.1513 19.2532 12.5707 19.3272C13.3315 19.4517 14.2223 19.845 15.6809 20.6977C16.631 21.2545 17.3398 21.4336 18.0338 21.2779C18.5015 21.1728 18.8801 20.9664 19.1918 20.6315C19.6409 20.1643 19.8636 19.5841 19.8636 18.8716C19.8636 17.3219 18.9061 15.8034 15.6772 12.2446C14.5526 11.0064 14.0664 10.5664 13.4392 10.2393C13.2462 10.142 12.9716 10.0252 12.8305 9.98233C12.4705 9.88109 11.5983 9.85384 11.2421 9.93171Z" fill="white"/>
</svg>
