<svg width="20" height="20" viewBox="0 0 20 20" fill="none" xmlns="http://www.w3.org/2000/svg">
<path d="M0.518158 9.44417C0.170901 9.08833 0.0054543 8.61333 0.0627244 8.13917C0.629062 3.49917 4.90159 0 10.0005 0C15.0993 0 19.3828 3.49917 19.9382 8.14C19.9945 8.61333 19.8282 9.08917 19.4809 9.44417C19.1355 9.7975 18.6419 10 18.1255 10H1.87537C1.35812 10 0.863597 9.7975 0.518158 9.44417ZM0.909959 13.3342H9.99955L12.3122 15.4542C12.7921 15.8942 13.5694 15.8942 14.0494 15.4542L16.362 13.3342H19.09C19.5918 13.3342 19.9991 12.9608 19.9991 12.5008C19.9991 12.0408 19.5918 11.6675 19.09 11.6675H18.1801H0.90905C0.407254 11.6675 0 12.0408 0 12.5008C0 12.9608 0.408163 13.3342 0.909959 13.3342ZM18.1819 15.0008H17.1156L15.3348 16.6325C14.7411 17.1767 13.9603 17.4483 13.1803 17.4483C12.4003 17.4483 11.6204 17.1767 11.0268 16.6325L9.24594 15H1.81901C0.816326 15 0.000908984 15.7475 0.000908984 16.6667C0.000908984 18.505 1.63174 20 3.63711 20H16.3638C18.3692 20 20 18.505 20 16.6667C20 15.7475 19.1846 15.0008 18.1819 15.0008Z" fill="white"/>
</svg>
