<svg width="26" height="24" viewBox="0 0 26 24" fill="none" xmlns="http://www.w3.org/2000/svg">
<path d="M8.33146 8.34971C9.1322 8.34971 9.78475 8.9981 9.78475 9.80264C9.7847 10.6071 9.13617 11.2556 8.33146 11.2556C7.52678 11.2555 6.87823 10.6071 6.87818 9.80264C6.87818 9.00212 7.52675 8.34974 8.33146 8.34971Z" fill="#BDBDBD"/>
<path d="M13.4041 8.34971C14.2048 8.34971 14.8574 8.9981 14.8574 9.80264C14.8573 10.6071 14.2088 11.2556 13.4041 11.2556C12.5994 11.2555 11.9508 10.6071 11.9508 9.80264C11.9508 9.00213 12.5994 8.34976 13.4041 8.34971Z" fill="#BDBDBD"/>
<path d="M18.4767 8.34971C19.2814 8.34971 19.93 8.9981 19.93 9.80264C19.9299 10.6071 19.2814 11.2556 18.4767 11.2556C17.672 11.2555 17.0235 10.6071 17.0234 9.80264C17.0234 9.00213 17.672 8.34976 18.4767 8.34971Z" fill="#BDBDBD"/>
<path fill-rule="evenodd" clip-rule="evenodd" d="M17.0637 0C22.0002 2.65239e-05 26 4.01868 26 8.97396V10.6071C26 15.5624 22.0002 19.581 17.0637 19.581H8.94022C8.53191 19.581 8.12761 19.5529 7.7313 19.5009L3.25103 24V17.5316C1.26922 15.8865 0 13.3968 0 10.611V8.97787L0.00390983 8.97396C0.00392709 4.01867 4.00371 0 8.94022 0H17.0637ZM8.94022 1.62921C4.90052 1.62921 1.62962 4.91534 1.62962 8.97005V10.6032C1.62965 13.0047 2.77855 15.1381 4.55613 16.479L4.88064 16.7233V20.0532L7.18275 17.7439L7.60306 17.824C8.03539 17.904 8.48379 17.9479 8.94413 17.9479H17.0676C21.1073 17.9479 24.3782 14.6618 24.3782 10.6071V8.97396C24.3782 4.91927 21.1033 1.63312 17.0676 1.63312H8.94413L8.94022 1.62921Z" fill="#BDBDBD"/>
</svg>
