<svg width="15" height="16" viewBox="0 0 15 16" fill="none" xmlns="http://www.w3.org/2000/svg">
<path d="M0.866292 0.773187C1.04392 0.709092 1.23824 0.799986 1.30304 0.975721C1.36156 1.1308 1.2904 1.29833 1.15038 1.37897L6.52974 16H5.68134L0.4024 1.64774L0.400155 1.64572C0.239299 1.67462 0.0784796 1.59196 0.019939 1.43491C-0.0427567 1.25915 0.047002 1.06668 0.224639 1.00258L0.866292 0.773187Z" fill="white"/>
<path d="M6.63219 0.154882C8.52753 -0.217272 8.79929 0.156935 8.95185 0.483622L9.53718 2.31148C9.73149 2.24738 9.90695 2.16258 10.0052 2.09642C11.234 1.27555 12.235 1.02535 13.3155 1.12252L15 7.85724C13.7252 7.87998 12.8851 8.45481 12.2205 8.88283C11.9342 9.06686 11.0313 9.60036 10.7617 9.13928C10.4921 8.68025 11.326 7.96892 11.186 7.46853C11.1003 7.16457 10.4399 6.7883 8.86634 7.13979C7.49334 7.4458 5.86107 8.31624 4.64478 8.9531H4.64049C4.84319 6.42633 3.73139 3.06216 2.1849 1.99728C3.4012 1.36041 5.25079 0.425757 6.63219 0.154882Z" fill="white"/>
</svg>
