<svg width="15" height="18" viewBox="0 0 15 18" fill="none" xmlns="http://www.w3.org/2000/svg">
<path fill-rule="evenodd" clip-rule="evenodd" d="M2.8125 16.7761C1.94956 16.7761 1.25 16.0912 1.25 15.2462L1.25 9.12674C1.25 8.28181 1.94956 7.59687 2.8125 7.59687H3.125C3.47018 7.59687 3.75 7.32289 3.75 6.98492C3.75 6.64695 3.47018 6.37297 3.125 6.37297H2.8125C1.2592 6.37297 0 7.60587 0 9.12674L0 15.2462C0 16.7671 1.2592 18 2.8125 18H12.1875C13.7408 18 15 16.7671 15 15.2462V9.12674C15 7.60587 13.7408 6.37297 12.1875 6.37297H11.875C11.5298 6.37297 11.25 6.64695 11.25 6.98492C11.25 7.32289 11.5298 7.59687 11.875 7.59687H12.1875C13.0504 7.59687 13.75 8.28181 13.75 9.12674V15.2462C13.75 16.0912 13.0504 16.7761 12.1875 16.7761H2.8125ZM7.5 13.1044C7.84518 13.1044 8.125 12.8304 8.125 12.4925V2.3428L10.8081 4.96984C11.0521 5.20882 11.4479 5.20882 11.6919 4.96984C11.936 4.73085 11.936 4.34339 11.6919 4.10441L7.5 0L3.30806 4.10441C3.06398 4.34339 3.06398 4.73085 3.30806 4.96984C3.55214 5.20882 3.94786 5.20882 4.19194 4.96984L6.875 2.3428L6.875 12.4925C6.875 12.8304 7.15482 13.1044 7.5 13.1044Z" fill="#F8F6FF"/>
</svg>
