<svg width="20" height="18" viewBox="0 0 20 18" fill="none" xmlns="http://www.w3.org/2000/svg">
<path fill-rule="evenodd" clip-rule="evenodd" d="M14.8893 0.000698694C17.0394 0.032558 18.9268 1.57186 19.627 3.43846L19.6907 3.61696C20.317 5.46599 19.9333 7.48659 19.0668 9.14735L18.9028 9.46207H18.889C17.9929 11.0333 16.6904 12.3454 15.3712 13.5156C14.509 14.2804 12.101 16.2685 10.3732 17.691L9.99775 18L9.62199 17.6912C7.89178 16.2691 5.48436 14.2815 4.62376 13.5156L4.36044 13.2798C3.04615 12.0911 1.77461 10.7529 0.934394 9.1482C0.0362739 7.43282 -0.340513 5.33175 0.373904 3.43818C1.08788 1.54301 3.02076 -0.016457 5.21408 0.000131126C6.9545 0.0130694 8.5181 0.995815 9.50094 2.26359L9.59445 2.38704L9.59474 2.38761C9.74229 2.58877 9.87652 2.79604 9.99918 3.00739C10.123 2.79484 10.2587 2.58728 10.4071 2.38619C11.3803 1.05885 12.9912 0.0134767 14.7866 0.000131126L14.8893 0.000698694ZM14.7955 1.16251C13.4546 1.17245 12.164 1.96887 11.3571 3.07011L11.3559 3.07153C11.0189 3.52841 10.755 4.03536 10.5505 4.57473L10.0055 6.01267L9.4516 4.57814C9.24304 4.03786 8.98088 3.5299 8.64385 3.07039C7.83346 1.9683 6.54532 1.17249 5.20519 1.16251C3.57441 1.15014 2.04156 2.33971 1.4748 3.84427L1.47452 3.84456C0.908392 5.34508 1.18393 7.09759 1.97764 8.61355C2.77329 10.1331 4.02973 11.4275 5.40799 12.6501L5.40885 12.6507C6.18798 13.3441 8.30454 15.0948 9.99718 16.4874C11.6876 15.0947 13.8047 13.344 14.5869 12.6501C15.9652 11.4275 17.2216 10.1332 18.0173 8.61355L18.1418 8.37517C18.8405 6.91547 19.0628 5.26917 18.5261 3.84427L18.5259 3.84342C17.9622 2.34018 16.4268 1.15017 14.7955 1.16251Z" fill="white" fill-opacity="0.72"/>
</svg>
