<svg width="20" height="18" viewBox="0 0 20 18" fill="none" xmlns="http://www.w3.org/2000/svg">
<path d="M19.072 8.96553C18.1733 10.7109 16.769 12.1706 15.2898 13.5047C14.3849 14.3209 11.8384 16.4587 9.99728 18C8.15299 16.4587 5.60656 14.3209 4.7047 13.5047C3.22553 12.1706 1.82125 10.7109 0.922512 8.96553C0.0237734 7.22016 -0.322614 5.13891 0.35768 3.30565C1.03798 1.46925 2.87915 -0.0155724 4.91067 0.000123301C6.57708 0.0126799 8.11555 1.00779 9.06421 2.31995C9.46053 2.86931 9.76323 3.46888 10.0004 4.09357C10.2344 3.46574 10.5403 2.86617 10.9366 2.31995C11.8821 1.00779 13.4237 0.0126799 15.0901 0.000123301C17.1216 -0.0155724 18.9659 1.46925 19.6431 3.30565C20.3234 5.14205 19.9739 7.22016 19.0783 8.96553H19.072Z" fill="#FF3B30"/>
</svg>
