<svg width="24" height="24" viewBox="0 0 24 24" fill="none" xmlns="http://www.w3.org/2000/svg">
<path d="M20.4522 13.208C22.3595 13.2082 23.9942 14.8114 23.9942 16.7188V20.501C23.9942 22.3443 22.4233 23.9154 20.5479 23.9795L20.5323 23.9639C19.1698 24.012 17.9674 24.012 16.669 23.9639C14.7777 23.8998 13.2068 22.3128 13.2227 20.4375V16.7188C13.2227 14.8273 14.842 13.208 16.7335 13.208H20.4522ZM7.29206 13.208C9.21548 13.2081 10.8018 14.8592 10.8018 16.7666V20.4375C10.8017 22.3127 9.24754 23.9156 7.32429 23.9639C5.99387 23.9959 4.80723 23.9959 3.50886 23.9639C1.63348 23.9157 0.0624068 22.3607 0.030346 20.4854C-0.00171244 19.171 -0.00171244 17.9687 0.030346 16.6543C0.094491 14.7629 1.69791 13.192 3.57331 13.208H7.29206ZM3.63679 15.5967C2.97989 15.5969 2.43484 16.1093 2.43464 16.7822V20.4209C2.43464 21.046 2.96437 21.5918 3.60554 21.5918H7.25984L7.24421 21.5752C7.91721 21.5749 8.41413 21.0141 8.41413 20.373V16.8311C8.41413 16.1418 7.88499 15.5967 7.17976 15.5967H3.63679ZM16.8448 15.5967C16.1878 15.5969 15.6114 16.0935 15.6114 16.7666V20.373C15.6114 21.0462 16.1399 21.5751 16.7969 21.5752H20.4522C21.0932 21.5109 21.5899 21.0302 21.5899 20.4053V16.7822C21.5897 16.1092 21.0448 15.5967 20.3878 15.5967H16.8448ZM7.29206 0C9.19929 0.000120803 10.8016 1.63478 10.8018 3.54199V7.18066C10.8018 9.2324 9.0711 10.7881 7.06746 10.7881H3.62117C1.72972 10.7881 0.0944629 9.23267 0.030346 7.3252C-0.017734 6.02689 -0.00171105 4.80848 0.030346 3.49414C0.0625246 1.60282 1.63356 5.44963e-05 3.50886 0H7.29206ZM20.5157 0C22.3911 0 23.9942 1.6031 23.9942 3.47852V7.24512C23.9942 9.21671 22.3269 10.7881 20.4034 10.7881H16.7969C14.8896 10.788 13.2384 9.20074 13.2384 7.27734V3.55859C13.2063 1.63509 14.81 0 16.7335 0H20.5157ZM3.58894 2.4043C2.94794 2.40439 2.41918 2.93324 2.41902 3.57422V7.19727C2.4191 7.8544 2.96402 8.38281 3.62117 8.38281H7.19538C7.90054 8.38281 8.39735 7.82247 8.39753 7.14941V3.60645C8.39746 2.9494 7.86901 2.40445 7.21199 2.4043H3.58894ZM16.7813 2.38867C16.1241 2.38867 15.5948 2.93362 15.5948 3.59082V7.13281C15.5948 7.82205 16.1399 8.36715 16.8292 8.36719H20.42C21.0931 8.36707 21.5899 7.82177 21.5899 7.18066V3.55859C21.5899 2.93352 21.0611 2.38879 20.42 2.38867H16.7813Z" fill="url(#paint0_linear_2208_2548)"/>
<defs>
<linearGradient id="paint0_linear_2208_2548" x1="2.63595" y1="1.29763e-06" x2="27.1667" y2="10.7698" gradientUnits="userSpaceOnUse">
<stop stop-color="#ED89EF"/>
<stop offset="0.5" stop-color="#7C5FE2"/>
<stop offset="1" stop-color="#55DEDC"/>
</linearGradient>
</defs>
</svg>
