<svg width="24" height="24" viewBox="0 0 24 24" fill="none" xmlns="http://www.w3.org/2000/svg">
<path d="M0 9.40899C0 14.5981 4.30297 18.818 9.59423 18.818C14.8855 18.818 19.1885 14.5981 19.1885 9.40899C19.1885 4.2199 14.8855 0 9.59423 0C4.30297 0 0 4.2199 0 9.40899ZM1.03878 9.40899C1.03878 4.78231 4.87646 1.01872 9.59423 1.01872C14.312 1.01872 18.1497 4.78231 18.1497 9.40899C18.1497 14.0357 14.312 17.7993 9.59423 17.7993C4.87646 17.7993 1.03878 14.0357 1.03878 9.40899Z" fill="#BDBDBD"/>
<path d="M8.30293 3.99705C8.2849 3.49123 8.67447 3.0703 9.19386 3.03847C9.33092 3.03139 9.4716 3.02432 9.60866 3.02432C12.5843 3.02432 15.1993 5.01577 15.917 7.88799C16.0253 8.32306 16.0866 8.76522 16.101 9.20737C16.1082 9.36301 15.9783 9.40192 15.9387 9.41253C15.899 9.42314 15.7619 9.43729 15.7006 9.29226C15.2966 8.35844 14.7231 7.5378 13.991 6.85866C12.6348 5.59234 10.9504 4.8955 9.25154 4.90258C8.73937 4.90258 8.32458 4.51348 8.30654 4.01827V4.00059L8.30293 3.99705Z" fill="#BDBDBD"/>
<path d="M16.0072 17.3536L16.6889 18.0221L17.9044 16.8301L17.2227 16.1615C17.0424 16.3773 16.8512 16.586 16.6456 16.7876C16.44 16.9892 16.2273 17.1767 16.0072 17.3536Z" fill="#BDBDBD"/>
<path d="M16.8296 18.7083L21.8576 23.6392C22.0956 23.8727 22.4094 24 22.7448 24C23.0803 24 23.394 23.8727 23.6321 23.6392C24.1226 23.1581 24.1226 22.38 23.6321 21.8989L18.6042 16.968C18.5789 16.9433 18.5465 16.9326 18.5176 16.9326C18.4887 16.9326 18.4527 16.9433 18.4274 16.968L16.8296 18.535C16.7791 18.5845 16.7791 18.6623 16.8296 18.7083Z" fill="#BDBDBD"/>
</svg>
