<svg width="26" height="24" viewBox="0 0 26 24" fill="none" xmlns="http://www.w3.org/2000/svg">
<path fill-rule="evenodd" clip-rule="evenodd" d="M19.356 0.000931592C22.1513 0.0433444 24.6048 2.09578 25.5151 4.58462L25.5979 4.82262C26.4121 7.288 25.9133 9.98211 24.7869 12.1965L24.5736 12.6161H24.5557C23.3908 14.7111 21.6975 16.4605 19.9825 18.0209C18.8616 19.0406 15.7312 21.6913 13.4852 23.5879L12.9971 24L12.5086 23.5883C10.2592 21.6921 7.12959 19.042 6.01088 18.0209L5.66856 17.7064C3.95997 16.1214 2.30698 14.3372 1.2147 12.1976C0.0471514 9.91044 -0.442656 7.10899 0.486064 4.58424C1.41423 2.05734 3.92697 -0.0219427 6.77829 0.000174834C9.04089 0.0173729 11.0735 1.32772 12.3512 3.01813L12.4728 3.18272L12.4731 3.18348C12.665 3.45172 12.8395 3.72803 12.9989 4.00986C13.1598 3.72648 13.3363 3.44968 13.5292 3.18159C14.7944 1.4118 16.8886 0.0179694 19.2225 0.000174834L19.356 0.000931592ZM19.2341 1.55002C17.491 1.56327 15.8131 2.62516 14.7642 4.09348L14.7627 4.09537C14.3246 4.70452 13.9814 5.3805 13.7156 6.09965L13.0071 8.01689L12.2871 6.10419C12.0159 5.38379 11.6752 4.70655 11.237 4.09386C10.1835 2.62436 8.50895 1.56326 6.76673 1.55002C4.64672 1.53351 2.65402 3.11961 1.91723 5.1257L1.91686 5.12608C1.18092 7.12677 1.5391 9.46346 2.57092 11.4847C3.60526 13.5108 5.23862 15.2366 7.03037 16.8668L7.03149 16.8676C8.0443 17.7921 10.7958 20.1264 12.9963 21.9832C15.1939 20.1263 17.946 17.792 18.963 16.8668C20.7548 15.2366 22.3881 13.5108 23.4225 11.4847L23.5843 11.1669C24.4926 9.22062 24.7816 7.02557 24.084 5.1257L24.0836 5.12456C23.3508 3.1202 21.3549 1.53349 19.2341 1.55002Z" fill="url(#paint0_linear_585_5120)"/>
<defs>
<linearGradient id="paint0_linear_585_5120" x1="2.8563" y1="1.29763e-06" x2="28.71" y2="12.2995" gradientUnits="userSpaceOnUse">
<stop stop-color="#ED89EF"/>
<stop offset="0.5" stop-color="#7C5FE2"/>
<stop offset="1" stop-color="#55DEDC"/>
</linearGradient>
</defs>
</svg>
