<svg width="14" height="14" viewBox="0 0 14 14" fill="none" xmlns="http://www.w3.org/2000/svg">
<path d="M7.62891 0L7.63672 1.31152C10.2772 1.60363 12.3887 3.69352 12.6885 6.35742L14 6.36719V7.63477L12.6885 7.63672C12.3958 10.2893 10.2908 12.3968 7.63672 12.6895L7.63477 14H6.36621L6.36426 12.6885C3.71069 12.3953 1.60415 10.2903 1.31152 7.63672L0 7.62891V6.37109L1.31152 6.36426C1.60315 3.71117 3.71217 1.60462 6.36426 1.3125L6.37109 0H7.62891ZM7 2.5459C4.54017 2.5459 2.5459 4.54114 2.5459 7.00098C2.54616 9.46059 4.54033 11.4551 7 11.4551C9.45967 11.4551 11.4538 9.46058 11.4541 7.00098C11.4541 4.54115 9.45983 2.5459 7 2.5459ZM7 4.4541C8.40596 4.45411 9.5459 5.59404 9.5459 7C9.54589 8.40596 8.40596 9.54589 7 9.5459C5.59404 9.5459 4.45411 8.40596 4.4541 7C4.4541 5.59404 5.59404 4.4541 7 4.4541Z" fill="white"/>
</svg>
