<svg width="14" height="14" viewBox="0 0 14 14" fill="none" xmlns="http://www.w3.org/2000/svg">
<path d="M10.9851 4.51607C10.8764 3.23092 10.2532 1.9739 9.35834 1.15462C8.49425 0.365462 7.55408 0 6.44 0C6.16828 0.0120482 5.9038 0.028111 5.63751 0.0863439C4.73538 0.287147 3.81151 0.865462 3.18473 1.61245C3.15937 1.64056 3.13582 1.67068 3.11227 1.7008C3.08872 1.73092 3.06517 1.76104 3.04162 1.79116C3.01807 1.82128 2.99633 1.85141 2.97278 1.88354C2.95105 1.91366 2.92749 1.94578 2.90575 1.97791C2.88401 2.01004 2.86228 2.04217 2.84054 2.0743C2.8188 2.10643 2.79888 2.13855 2.77895 2.17068C2.75902 2.20281 2.73909 2.23695 2.71917 2.26908C2.69924 2.30321 2.67932 2.33534 2.6612 2.36948C2.64309 2.40361 2.62316 2.43775 2.60505 2.47189C2.58693 2.50602 2.56881 2.54016 2.5507 2.57631C2.53258 2.61044 2.51628 2.64659 2.49998 2.68072C2.48367 2.71486 2.46737 2.751 2.45107 2.78715C2.43477 2.82329 2.42027 2.85944 2.40397 2.89558C2.38948 2.93173 2.37499 2.96787 2.36049 3.00402C2.346 3.04016 2.33151 3.0763 2.31883 3.11446C2.30615 3.15261 2.29165 3.18875 2.27897 3.2249C2.26629 3.26104 2.25362 3.2992 2.24275 3.33735C2.23007 3.3755 2.2192 3.41365 2.20833 3.4498C2.19746 3.48795 2.18659 3.5261 2.17753 3.56426C2.16666 3.60241 2.1576 3.64056 2.14854 3.67872C2.13949 3.71687 2.13043 3.75502 2.12137 3.79518C2.11232 3.83333 2.10507 3.87349 2.09782 3.91165C2.09058 3.9498 2.08333 3.98996 2.07609 4.02811C2.06884 4.06626 2.0634 4.10642 2.05797 4.14659C2.05253 4.18675 2.0471 4.2249 2.04167 4.26506C2.03623 4.30522 2.03261 4.34337 2.02898 4.38353C2.02536 4.4237 2.02174 4.46185 2.01812 4.50201C2.01449 4.54217 2.01268 4.58032 2.00906 4.62048C2.00725 4.66064 2.00544 4.7008 2.00363 4.73896C2.00182 4.77711 2.00181 4.81928 2 4.85743C2 4.89759 2 4.93775 2 4.9759C2 5.01606 2 5.05622 2.00181 5.09438C2.09058 7.68474 5.02159 11.8655 6.44362 13.9859L6.47804 14L6.51065 13.9679C6.9273 13.4096 7.3059 12.8032 7.699 12.2249C9.03227 10.2651 11.2006 7.0743 10.9851 4.51607ZM8.13195 6.26305C7.76965 6.7751 7.26424 7.05221 6.6918 7.13052C6.68637 7.13052 6.68093 7.13253 6.6755 7.13454C6.13567 7.20482 5.60852 7.02811 5.18825 6.65261C5.16289 6.62852 5.13753 6.60442 5.11217 6.58032C5.08681 6.55623 5.06326 6.53012 5.03971 6.50402C5.01616 6.47791 4.99261 6.45181 4.97087 6.4237C4.94914 6.39558 4.92558 6.36747 4.90566 6.33936C4.88392 6.31125 4.86399 6.28112 4.84407 6.25301C4.82414 6.22289 4.80421 6.19277 4.7861 6.16265C4.76798 6.13253 4.74987 6.1004 4.73175 6.06827C4.71364 6.03614 4.69734 6.00402 4.68103 5.97189C4.66473 5.93976 4.65024 5.90562 4.63574 5.87349C4.62125 5.83936 4.60676 5.80723 4.59408 5.77309C4.5814 5.73896 4.56872 5.70482 4.55785 5.66867C4.54698 5.63253 4.53611 5.59839 4.52524 5.56426C4.51437 5.52811 4.50531 5.49397 4.49807 5.45783C4.49082 5.42168 4.48176 5.38554 4.47452 5.3494C4.46727 5.31325 4.46184 5.27711 4.4564 5.24097C4.45097 5.20482 4.44735 5.16667 4.44372 5.13052C4.38576 4.50602 4.55966 3.83534 4.92196 3.35341C5.2752 2.88353 5.77337 2.62249 6.31501 2.56426C6.83491 2.5241 7.32039 2.69277 7.73523 3.04217C8.1718 3.41165 8.487 3.94779 8.55584 4.56024C8.62105 5.1506 8.4707 5.79719 8.1392 6.26707L8.13195 6.26305Z" fill="white"/>
</svg>
