<svg width="24" height="24" viewBox="0 0 24 24" fill="none" xmlns="http://www.w3.org/2000/svg">
<path d="M18 1.5C19.6582 1.5 21 2.84177 21 4.5V21C21 22.6582 19.6582 24 18 24H6C4.34177 24 3 22.6582 3 21V4.5C3.00001 2.84178 4.34178 1.50002 6 1.5V2.24805C6 3.90629 7.34176 5.24805 9 5.24805H15C16.6582 5.24805 18 3.90629 18 2.24805V1.5ZM6.59375 18.7422C6.48837 18.7422 6.39289 18.8011 6.34668 18.8965L6.01367 19.5693L5.27148 19.6777C5.16599 19.6909 5.07984 19.7673 5.04688 19.8662C5.01415 19.9649 5.04063 20.077 5.11621 20.1494L5.6543 20.6738L5.52832 21.4121C5.50861 21.5143 5.55202 21.62 5.6377 21.6826C5.72009 21.7418 5.83555 21.7515 5.92773 21.7021L6.58984 21.3525L7.25293 21.7021C7.29247 21.7252 7.33901 21.7354 7.38184 21.7354H7.3877C7.44374 21.7354 7.50035 21.7189 7.5498 21.6826C7.63216 21.62 7.67466 21.5176 7.6582 21.4121L7.5332 20.6738L8.07031 20.1494C8.14606 20.077 8.17246 19.965 8.13965 19.8662C8.10668 19.7673 8.02053 19.6942 7.91504 19.6777L7.17383 19.5693L6.84082 18.8965C6.79469 18.801 6.6991 18.7423 6.59375 18.7422ZM9.1084 20.8154C8.9571 20.8157 8.83229 20.9405 8.83203 21.0918C8.83203 21.2433 8.95694 21.3689 9.1084 21.3691H18.2441C18.3957 21.3691 18.5205 21.2434 18.5205 21.0918C18.5202 20.9404 18.3956 20.8155 18.2441 20.8154H9.1084ZM6.74512 19.9414C6.78468 20.0238 6.86411 20.0806 6.95312 20.0938L7.28223 20.1426L7.04199 20.377C6.97606 20.4396 6.94641 20.5321 6.96289 20.6211L7.01855 20.9502L6.72168 20.7959C6.64258 20.7531 6.54393 20.7531 6.46484 20.7959L6.16797 20.9502L6.22461 20.6211C6.24107 20.5322 6.21126 20.4396 6.14551 20.377L5.9043 20.1426H5.91113L6.24023 20.0938C6.32925 20.0806 6.40868 20.0238 6.44824 19.9414L6.59668 19.6416L6.74512 19.9414ZM9.1084 19.4971C8.95697 19.4973 8.83207 19.622 8.83203 19.7734C8.83203 19.9249 8.95694 20.0505 9.1084 20.0508H18.2441C18.3957 20.0507 18.5205 19.925 18.5205 19.7734C18.5205 19.6219 18.3957 19.4972 18.2441 19.4971H9.1084ZM6.59375 14.7393C6.48829 14.7393 6.39285 14.799 6.34668 14.8945L6.01367 15.5674L5.27148 15.6758C5.16609 15.689 5.0799 15.7645 5.04688 15.8633C5.01392 15.9622 5.04043 16.0749 5.11621 16.1475L5.6543 16.6709L5.52832 17.4102C5.50872 17.5122 5.55211 17.6171 5.6377 17.6797C5.72011 17.739 5.83543 17.7496 5.92773 17.7002L6.58984 17.3506L7.25293 17.7002C7.29245 17.7232 7.33905 17.7324 7.38184 17.7324H7.3877C7.44374 17.7324 7.50035 17.716 7.5498 17.6797C7.63187 17.6171 7.67453 17.5154 7.6582 17.4102L7.5332 16.6709L8.07031 16.1475C8.14614 16.0749 8.17262 15.9622 8.13965 15.8633C8.1066 15.7646 8.02041 15.6922 7.91504 15.6758L7.17383 15.5674L6.84082 14.8945C6.7947 14.799 6.69914 14.7394 6.59375 14.7393ZM9.1084 16.8164C8.95694 16.8166 8.83203 16.9422 8.83203 17.0938C8.83222 17.2451 8.95706 17.3699 9.1084 17.3701H18.2441C18.3956 17.37 18.5203 17.2452 18.5205 17.0938C18.5205 16.9422 18.3957 16.8165 18.2441 16.8164H9.1084ZM6.74512 15.9424C6.78468 16.0248 6.86411 16.0815 6.95312 16.0947L7.28223 16.1436L7.04199 16.3779C6.97606 16.4406 6.94641 16.5331 6.96289 16.6221L7.01855 16.9512L6.72168 16.7969C6.64259 16.7541 6.54391 16.754 6.46484 16.7969L6.16797 16.9512L6.22461 16.6221C6.24108 16.5331 6.2113 16.4406 6.14551 16.3779L5.9043 16.1436H5.91113L6.24023 16.0947C6.32925 16.0815 6.40868 16.0248 6.44824 15.9424L6.59668 15.6426L6.74512 15.9424ZM9.1084 15.498C8.95705 15.4983 8.8322 15.623 8.83203 15.7744C8.83203 15.9259 8.95694 16.0515 9.1084 16.0518H18.2441C18.3957 16.0517 18.5205 15.926 18.5205 15.7744C18.5203 15.623 18.3956 15.4981 18.2441 15.498H9.1084ZM6.59375 10.7412C6.48837 10.7412 6.39289 10.8001 6.34668 10.8955L6.01367 11.5684L5.27148 11.6768C5.16599 11.6899 5.07984 11.7663 5.04688 11.8652C5.01415 11.964 5.04063 12.076 5.11621 12.1484L5.6543 12.6729L5.52832 13.4111C5.50861 13.5133 5.55202 13.619 5.6377 13.6816C5.68378 13.7177 5.74294 13.7344 5.79883 13.7344H5.80566C5.84848 13.7343 5.89505 13.7209 5.93457 13.7012L6.59668 13.3516L7.25977 13.7012C7.35202 13.7505 7.46417 13.7442 7.5498 13.6816C7.63216 13.619 7.67466 13.5166 7.6582 13.4111L7.5332 12.6729L8.07031 12.1484C8.14606 12.076 8.17246 11.9641 8.13965 11.8652C8.10668 11.7663 8.02053 11.6932 7.91504 11.6768L7.17383 11.5684L6.84082 10.8955C6.79469 10.8 6.6991 10.7413 6.59375 10.7412ZM9.1084 12.8174C8.95694 12.8176 8.83203 12.9432 8.83203 13.0947C8.83218 13.2461 8.95703 13.3709 9.1084 13.3711H18.2441C18.3956 13.371 18.5204 13.2462 18.5205 13.0947C18.5205 12.9431 18.3957 12.8175 18.2441 12.8174H9.1084ZM6.74512 11.9443C6.78472 12.0266 6.86421 12.0825 6.95312 12.0957L7.28223 12.1455L7.04199 12.3789C6.97607 12.4415 6.94643 12.5341 6.96289 12.623L7.01855 12.9531L6.72168 12.7979C6.6426 12.7551 6.54387 12.755 6.46484 12.7979L6.16797 12.9531L6.22461 12.623C6.24102 12.5341 6.21135 12.4415 6.14551 12.3789L5.9043 12.1455H5.91113L6.24023 12.0957C6.32913 12.0825 6.40863 12.0266 6.44824 11.9443L6.59668 11.6436L6.74512 11.9443ZM9.1084 11.4961C8.95696 11.4963 8.83207 11.621 8.83203 11.7725C8.83203 11.924 8.95694 12.0496 9.1084 12.0498H18.2441C18.3957 12.0497 18.5205 11.9241 18.5205 11.7725C18.5205 11.6209 18.3957 11.4962 18.2441 11.4961H9.1084ZM6.59375 6.74219C6.48837 6.74219 6.39289 6.80106 6.34668 6.89648L6.01367 7.56934L5.27148 7.67773C5.16599 7.69092 5.07984 7.76731 5.04688 7.86621C5.01415 7.96493 5.04063 8.07698 5.11621 8.14941L5.6543 8.67383L5.52832 9.41211C5.50861 9.51426 5.55202 9.62001 5.6377 9.68262C5.68378 9.71869 5.74294 9.73533 5.79883 9.73535H5.80566C5.84848 9.73532 5.89505 9.72191 5.93457 9.70215L6.59668 9.35254L7.25977 9.70215C7.35202 9.75144 7.46417 9.74519 7.5498 9.68262C7.63216 9.61999 7.67466 9.51755 7.6582 9.41211L7.5332 8.67383L8.07031 8.14941C8.14606 8.07696 8.17246 7.96504 8.13965 7.86621C8.10668 7.76731 8.02053 7.69422 7.91504 7.67773L7.17383 7.56934L6.84082 6.89648C6.79469 6.80102 6.6991 6.74229 6.59375 6.74219ZM9.1084 8.81543C8.95694 8.81567 8.83203 8.94127 8.83203 9.09277C8.83229 9.24407 8.9571 9.36891 9.1084 9.36914H18.2441C18.3956 9.36905 18.5203 9.24416 18.5205 9.09277C18.5205 8.94118 18.3957 8.81552 18.2441 8.81543H9.1084ZM6.74512 7.94141C6.78468 8.02382 6.86411 8.08056 6.95312 8.09375L7.28223 8.14258L7.04199 8.37695C6.97606 8.43959 6.94641 8.53208 6.96289 8.62109L7.01855 8.9502L6.72168 8.7959C6.64258 8.75311 6.54393 8.75306 6.46484 8.7959L6.16797 8.9502L6.22461 8.62109C6.24107 8.5322 6.21126 8.43959 6.14551 8.37695L5.9043 8.14258H5.91113L6.24023 8.09375C6.32925 8.08056 6.40868 8.02382 6.44824 7.94141L6.59668 7.6416L6.74512 7.94141ZM9.1084 7.49707C8.95697 7.49731 8.83207 7.62196 8.83203 7.77344C8.83203 7.92494 8.95694 8.05055 9.1084 8.05078H18.2441C18.3957 8.05069 18.5205 7.92503 18.5205 7.77344C18.5205 7.62187 18.3957 7.49716 18.2441 7.49707H9.1084ZM15 0C15.8284 0 16.5 0.671573 16.5 1.5V2.24805C16.5 3.07647 15.8284 3.74805 15 3.74805H9C8.17157 3.74805 7.5 3.07647 7.5 2.24805V1.5C7.5 0.671573 8.17157 0 9 0H15Z" fill="white"/>
</svg>
