<svg width="41" height="24" viewBox="0 0 41 24" fill="none" xmlns="http://www.w3.org/2000/svg">
<path d="M16.9328 12C16.9328 8.66468 18.2979 5.64848 20.5 3.47387C18.3255 1.32682 15.3354 0 12.0336 0C5.38783 0 0 5.37277 0 12C0 18.6272 5.38783 24 12.0336 24C15.3354 24 18.3255 22.6732 20.5 20.5261C18.2979 18.3515 16.9328 15.3346 16.9328 12Z" fill="#BDBDBD"/>
<path d="M28.9664 0C25.6646 0 22.6745 1.32682 20.5 3.47387C22.7021 5.64848 24.0672 8.66537 24.0672 12C24.0672 15.3346 22.7021 18.3515 20.5 20.5261C22.6745 22.6732 25.6646 24 28.9664 24C35.6122 24 41 18.6272 41 12C41 5.37277 35.6122 0 28.9664 0Z" fill="#BDBDBD"/>
</svg>
