<svg width="24" height="24" viewBox="0 0 24 24" fill="none" xmlns="http://www.w3.org/2000/svg">
<path d="M11.6045 3.45117C11.7362 3.32976 12.0031 3.31015 12.1348 3.43164L12.7461 4.00488L13.4853 4.69434L14.2256 5.38281L15.7041 6.75977L16.4443 7.44824L17.1836 8.1377L17.9228 8.82617L18.6631 9.51465C18.7618 9.6065 19.6384 10.42 19.6387 10.4199C19.7467 10.548 19.9155 10.6353 20.0674 10.6387C20.2328 10.6454 20.3751 10.5343 20.5068 10.4229L21.8848 9.23828C22.398 8.79951 23.1374 8.89332 23.5967 9.33887C24.0559 9.78442 24.1571 10.5375 23.7217 11.0742C23.5731 11.2599 23.3738 11.419 23.1982 11.5811L22.6074 12.1279L21.3242 13.3096L20.6816 13.9004C20.1991 14.3457 20.0267 14.6496 19.5947 14.4102L19.5918 14.4336L16.6094 12.7891L15.414 13.9844L17.2949 17.1514C17.4501 17.4112 17.3689 17.5798 17.1933 17.7891L14.1914 21.3848C13.9314 21.6952 13.6814 21.9246 13.3066 21.9854C12.5265 22.1102 11.7495 21.4346 11.79 20.5771C11.8002 20.331 11.8276 20.1186 11.9658 19.8994L13.4219 17.5967L11.7265 15.6758L4.78612 20.5537C4.36742 20.8473 3.87112 20.8378 3.43553 20.6016C2.66895 20.1897 2.59836 19.1322 3.02049 18.6934L3.96873 17.7051L12.4121 9.24121L11.6015 8.20801C11.4125 7.965 11.098 7.87385 10.8447 8.08301L9.55858 9.15332C9.20737 9.44702 8.72049 9.42725 8.30174 9.23145C7.94378 9.06602 7.64663 8.69101 7.57909 8.22852C7.53182 7.89431 7.63352 7.4928 7.89354 7.22949L10.7676 4.30566C11.0579 4.01205 11.304 3.73129 11.6045 3.45117ZM1.57127 16.418C2.26694 16.3369 2.97331 16.4119 3.71288 16.3916L2.47655 17.6611C2.18619 17.6713 1.91603 17.6881 1.64256 17.6611C1.32857 17.6308 1.13635 17.3738 1.10252 17.0869C1.07551 16.8473 1.25733 16.4519 1.57127 16.418ZM5.52245 14.6123H1.44334C1.12253 14.6123 0.906191 14.3013 0.86229 14.0312C0.811952 13.7243 1.0345 13.4276 1.35155 13.333H6.77928L5.52245 14.6123ZM9.916 10.2412L8.64256 11.5537H8.63963C8.17023 11.547 7.72399 11.5878 7.27147 11.5439C6.94086 11.51 6.71498 11.1861 6.71483 10.8926C6.71483 10.5821 6.96449 10.2611 7.32909 10.2441C8.18682 10.207 9.03126 10.2277 9.916 10.2412ZM3.79393 10.2441C4.13479 10.2444 4.3645 10.5716 4.38475 10.8584C4.40501 11.1453 4.19209 11.5264 3.81737 11.54L3.81346 11.5371C2.72618 11.5742 1.67558 11.5637 0.622055 11.54C0.25085 11.5297 0.0178422 11.2364 0.000961441 10.9395C-0.0159218 10.6424 0.190198 10.2442 0.568344 10.2441H3.79393ZM19.1318 2C20.7898 2 22.1337 3.34356 22.1338 5.00098C22.1338 6.65848 20.7899 8.00195 19.1318 8.00195C17.4739 8.00183 16.1299 6.65841 16.1299 5.00098C16.13 3.34364 17.4739 2.00012 19.1318 2Z" fill="white"/>
</svg>
