<svg width="24" height="18" viewBox="0 0 24 18" fill="none" xmlns="http://www.w3.org/2000/svg">
<path fill-rule="evenodd" clip-rule="evenodd" d="M0 1.5C0 0.671572 0.671574 0 1.5 0H22.5C23.3284 0 24 0.671573 24 1.5V4.5C24 5.32843 23.3284 6 22.5 6V14.625C22.5 16.489 20.989 18 19.125 18H4.875C3.01104 18 1.5 16.489 1.5 14.625V6C0.671573 6 0 5.32843 0 4.5V1.5ZM2.625 5.25C2.625 4.83579 2.96079 4.5 3.375 4.5H20.625C21.0392 4.5 21.375 4.83579 21.375 5.25C21.375 5.66421 21.0392 6 20.625 6H3.375C2.96079 6 2.625 5.66421 2.625 5.25ZM9.1875 9.375C9.1875 9.06434 9.43934 8.8125 9.75 8.8125H14.25C14.5607 8.8125 14.8125 9.06434 14.8125 9.375C14.8125 9.68566 14.5607 9.9375 14.25 9.9375H9.75C9.43934 9.9375 9.1875 9.68566 9.1875 9.375Z" fill="white"/>
</svg>
