<svg width="61" height="56" viewBox="0 0 61 56" fill="none" xmlns="http://www.w3.org/2000/svg">
<path d="M19.5469 19.4918C21.4349 19.4918 22.9565 21.0047 22.9565 22.8819C22.9565 24.7592 21.4349 26.2721 19.5469 26.2721C17.6589 26.272 16.1373 24.7591 16.1373 22.8819C16.1373 21.0141 17.6589 19.4918 19.5469 19.4918Z" fill="#D1D1D6" fill-opacity="0.72"/>
<path d="M31.448 19.4918C33.336 19.4918 34.8576 21.0047 34.8577 22.8819C34.8577 24.7592 33.3361 26.2721 31.448 26.2721C29.5601 26.272 28.0384 24.7591 28.0384 22.8819C28.0385 21.0142 29.5601 19.4919 31.448 19.4918Z" fill="#D1D1D6" fill-opacity="0.72"/>
<path d="M43.3492 19.4918C45.2372 19.4918 46.7587 21.0047 46.7588 22.8819C46.7588 24.7592 45.2372 26.2721 43.3492 26.2721C41.4612 26.272 39.9395 24.7591 39.9395 22.8819C39.9396 21.0142 41.4613 19.4919 43.3492 19.4918Z" fill="#D1D1D6" fill-opacity="0.72"/>
<path fill-rule="evenodd" clip-rule="evenodd" d="M40.034 0C51.6158 6.18891e-05 61 9.37692 61 20.9392V24.7498C61 36.3122 51.6158 45.689 40.034 45.6891H20.9751C20.0172 45.6891 19.0686 45.6235 18.1388 45.5021L7.62741 56V40.9071C2.97777 37.0686 0 31.2593 0 24.759V20.9484L0.00917307 20.9392C0.00921162 9.37688 9.39332 0 20.9751 0H40.034ZM20.9751 3.81062C11.4974 3.81062 3.82337 11.4783 3.82334 20.9392V24.7498C3.82334 30.3535 6.51891 35.3313 10.6894 38.46L11.4507 39.0301V46.8009L16.8518 41.4115L17.838 41.5985C18.8523 41.7852 19.9043 41.8876 20.9843 41.8876H40.0432C49.521 41.8876 57.195 34.2199 57.195 24.759V20.9484C57.1949 11.4875 49.5115 3.81974 40.0432 3.81974H20.9843L20.9751 3.81062Z" fill="#D1D1D6" fill-opacity="0.72"/>
</svg>
