<svg width="22" height="22" viewBox="0 0 22 22" fill="none" xmlns="http://www.w3.org/2000/svg">
<path d="M0 8.62491C0 13.3816 3.94439 17.2498 8.79471 17.2498C13.645 17.2498 17.5894 13.3816 17.5894 8.62491C17.5894 3.86824 13.645 0 8.79471 0C3.94439 0 0 3.86824 0 8.62491ZM0.952212 8.62491C0.952212 4.38379 4.47009 0.933824 8.79471 0.933824C13.1193 0.933824 16.6372 4.38379 16.6372 8.62491C16.6372 12.866 13.1193 16.316 8.79471 16.316C4.47009 16.316 0.952212 12.866 0.952212 8.62491Z" fill="url(#paint0_linear_1930_333)"/>
<path d="M7.61102 3.66396C7.59449 3.20029 7.9516 2.81444 8.42771 2.78526C8.55335 2.77878 8.6823 2.77229 8.80794 2.77229C11.5356 2.77229 13.9327 4.59779 14.5906 7.23065C14.6898 7.62948 14.746 8.03478 14.7593 8.44009C14.7659 8.58276 14.6468 8.61842 14.6104 8.62815C14.5741 8.63788 14.4484 8.65085 14.3922 8.51791C14.0219 7.6619 13.4962 6.90965 12.825 6.2871C11.5819 5.12631 10.0378 4.48755 8.48058 4.49403C8.01109 4.49403 7.63086 4.13736 7.61433 3.68342V3.66721L7.61102 3.66396Z" fill="url(#paint1_linear_1930_333)"/>
<path d="M14.6733 15.9074L15.2982 16.5203L16.4124 15.4276L15.7875 14.8147C15.6222 15.0125 15.4469 15.2038 15.2585 15.3887C15.07 15.5735 14.875 15.7453 14.6733 15.9074Z" fill="url(#paint2_linear_1930_333)"/>
<path d="M15.4271 17.1493L20.0361 21.6693C20.2543 21.8833 20.5419 22 20.8494 22C21.1569 22 21.4445 21.8833 21.6628 21.6693C22.1124 21.2283 22.1124 20.515 21.6628 20.074L17.0538 15.554C17.0307 15.5313 17.0009 15.5216 16.9745 15.5216C16.948 15.5216 16.915 15.5313 16.8918 15.554L15.4271 16.9904C15.3808 17.0358 15.3808 17.1071 15.4271 17.1493Z" fill="url(#paint3_linear_1930_333)"/>
<defs>
<linearGradient id="paint0_linear_1930_333" x1="2.41687" y1="1.1895e-06" x2="24.9071" y2="9.87633" gradientUnits="userSpaceOnUse">
<stop stop-color="#ED89EF"/>
<stop offset="0.5" stop-color="#7C5FE2"/>
<stop offset="1" stop-color="#55DEDC"/>
</linearGradient>
<linearGradient id="paint1_linear_1930_333" x1="2.41687" y1="1.1895e-06" x2="24.9071" y2="9.87633" gradientUnits="userSpaceOnUse">
<stop stop-color="#ED89EF"/>
<stop offset="0.5" stop-color="#7C5FE2"/>
<stop offset="1" stop-color="#55DEDC"/>
</linearGradient>
<linearGradient id="paint2_linear_1930_333" x1="2.41687" y1="1.1895e-06" x2="24.9071" y2="9.87633" gradientUnits="userSpaceOnUse">
<stop stop-color="#ED89EF"/>
<stop offset="0.5" stop-color="#7C5FE2"/>
<stop offset="1" stop-color="#55DEDC"/>
</linearGradient>
<linearGradient id="paint3_linear_1930_333" x1="2.41687" y1="1.1895e-06" x2="24.9071" y2="9.87633" gradientUnits="userSpaceOnUse">
<stop stop-color="#ED89EF"/>
<stop offset="0.5" stop-color="#7C5FE2"/>
<stop offset="1" stop-color="#55DEDC"/>
</linearGradient>
</defs>
</svg>
