<svg width="24" height="23" viewBox="0 0 24 23" fill="none" xmlns="http://www.w3.org/2000/svg">
<path d="M7.69058 7.70935C8.42972 7.70935 9.03208 8.30801 9.03208 9.05084C9.03203 9.79364 8.43339 10.3923 7.69058 10.3923C6.9478 10.3923 6.34914 9.79362 6.34909 9.05084C6.34909 8.31172 6.94777 7.70937 7.69058 7.70935Z" fill="#8E8E93"/>
<path d="M12.373 7.70935C13.1121 7.70935 13.7145 8.30801 13.7145 9.05084C13.7144 9.79364 13.1158 10.3923 12.373 10.3923C11.6302 10.3923 11.0316 9.7936 11.0315 9.05084C11.0315 8.31173 11.6302 7.7094 12.373 7.70935Z" fill="#8E8E93"/>
<path d="M17.0554 7.70935C17.7983 7.70935 18.3969 8.30801 18.3969 9.05084C18.3969 9.79364 17.7982 10.3923 17.0554 10.3923C16.3127 10.3923 15.714 9.7936 15.7139 9.05084C15.7139 8.31173 16.3126 7.7094 17.0554 7.70935Z" fill="#8E8E93"/>
<path fill-rule="evenodd" clip-rule="evenodd" d="M15.7511 0C20.3079 2.44897e-05 24 3.71048 24 8.28572V9.79359C24 14.3688 20.3079 18.0793 15.7511 18.0793H8.25252C7.87561 18.0793 7.50241 18.0534 7.13659 18.0053L3.00095 22.1594V16.1871C1.17158 14.6681 0 12.3694 0 9.7972V8.28933L0.00360908 8.28572C0.003625 3.71046 3.69573 0 8.25252 0H15.7511ZM8.25252 1.50426C4.52356 1.50426 1.50426 4.53837 1.50426 8.28211V9.78998C1.50429 12.0073 2.56481 13.9771 4.20566 15.2151L4.50521 15.4407V18.5153L6.63024 16.383L7.01821 16.457C7.41729 16.5309 7.83119 16.5714 8.25612 16.5714H15.7547C19.4837 16.5714 22.503 13.5373 22.503 9.79359V8.28572C22.5029 4.54199 19.48 1.50787 15.7547 1.50787H8.25612L8.25252 1.50426Z" fill="#8E8E93"/>
</svg>
