<svg width="22" height="22" viewBox="0 0 22 22" fill="none" xmlns="http://www.w3.org/2000/svg">
<path fill-rule="evenodd" clip-rule="evenodd" d="M12.1714 0.638041C12.634 0.680921 13.0416 0.957155 13.2598 1.37791L14.8211 4.40621L16.5483 4.62867C16.6586 4.64208 16.7532 4.71171 16.8057 4.81082L17.6495 6.44576C17.6995 6.54758 17.6995 6.66533 17.6495 6.76714L16.8504 8.34293L16.8453 8.34031L18.4068 11.3686C18.625 11.7894 18.6171 12.288 18.3884 12.7034C18.1597 13.116 17.7444 13.3813 17.2791 13.4082L8.10996 13.9549L8.8462 15.3807C8.93549 15.5495 8.8698 15.7613 8.70424 15.8497L7.62632 16.4286L9.28774 19.6472C9.46647 19.9929 9.50063 20.3896 9.3876 20.7621C9.27455 21.1346 9.02483 21.4401 8.68576 21.6223L8.29941 21.8312C8.08649 21.9464 7.86034 22 7.63428 22C7.11905 22 6.61964 21.7159 6.36202 21.2175L3.7174 16.0907C3.41779 16.222 3.0972 16.2891 2.77656 16.2891C2.53735 16.2891 2.29789 16.2542 2.06394 16.1792C1.45413 15.9862 0.954704 15.5627 0.657681 14.9866L0.276467 14.247C-0.0205449 13.6708 -0.0809246 13.0115 0.108322 12.3898C0.297589 11.7681 0.712976 11.2587 1.27815 10.9559L5.05563 8.92996L10.9728 1.17142C11.2593 0.796277 11.7061 0.595195 12.1714 0.638041ZM4.31939 15.7772L6.96144 20.8961C7.156 21.2712 7.61337 21.4158 7.98135 21.2175L8.3677 21.0086C8.54382 20.9121 8.67536 20.7512 8.73582 20.5556V20.5611C8.79628 20.3655 8.77781 20.1563 8.68319 19.9741L6.04139 14.8526L4.31939 15.7772ZM6.64594 14.5283L7.31108 15.8149L8.08917 15.3967L7.42403 14.1103L6.64594 14.5283ZM1.59364 11.5696C0.76035 12.0172 0.436904 13.0731 0.875884 13.9227L1.2571 14.6623C1.47002 15.0723 1.82755 15.3753 2.26391 15.5147V15.5118C2.70027 15.6512 3.16293 15.6085 3.56774 15.3914L3.62037 15.3645C3.64138 15.3431 3.66773 15.3243 3.69661 15.3082L6.02291 14.0622C6.05182 14.0461 6.08071 14.0354 6.11225 14.03L7.10854 13.4966L5.13444 9.67218L1.59364 11.5696ZM12.111 1.32949C11.8745 1.30806 11.6536 1.40727 11.5091 1.59749L5.68123 9.23826L7.76571 13.2823L17.2421 12.7167C17.4787 12.7033 17.6838 12.5746 17.7995 12.3629H17.802C17.9203 12.1512 17.923 11.9073 17.8126 11.6929L12.6578 1.6993C12.5474 1.48495 12.3476 1.35095 12.111 1.32949ZM16.4641 7.58998L16.9636 6.60645L16.2854 5.29316L15.2075 5.15393L16.4641 7.58998Z" fill="white"/>
<path d="M21.6583 8.02678C21.8476 8.0268 22 8.18225 22 8.3725C22 8.56546 21.8502 8.72085 21.6609 8.72085L19.8655 8.72634C19.6762 8.72632 19.5238 8.57086 19.5238 8.38062C19.5238 8.18766 19.6736 8.03227 19.8629 8.03227L21.6583 8.02678Z" fill="white"/>
<path d="M20.5152 3.47346C20.6808 3.38239 20.8884 3.44943 20.9752 3.61819C21.0646 3.78702 20.9988 3.99874 20.8333 4.08718L18.8065 5.17278C18.7566 5.19954 18.7014 5.2128 18.6489 5.21282C18.5254 5.21282 18.407 5.14592 18.3465 5.02805C18.2571 4.85922 18.3229 4.64751 18.4885 4.55905L20.5152 3.47346Z" fill="white"/>
<path d="M17.2421 0.150466C17.3499 -0.00765138 17.5604 -0.0478717 17.7155 0.0620067C17.8705 0.171908 17.9098 0.386266 17.802 0.544347L16.7796 2.05052C16.7112 2.14966 16.606 2.20048 16.4982 2.20048C16.4299 2.20046 16.3643 2.18179 16.3039 2.13898H16.3064C16.1514 2.02911 16.1119 1.81475 16.2197 1.65664L17.2421 0.150466Z" fill="white"/>
</svg>
