<svg width="38" height="22" viewBox="0 0 38 22" fill="none" xmlns="http://www.w3.org/2000/svg">
<path d="M15.6938 11C15.6938 7.94262 16.959 5.17777 19 3.18438C16.9846 1.21626 14.2133 0 11.1531 0C4.99359 0 0 4.92504 0 11C0 17.075 4.99359 22 11.1531 22C14.2133 22 16.9846 20.7837 19 18.8156C16.959 16.8222 15.6938 14.0567 15.6938 11Z" fill="#8E8E93"/>
<path d="M26.8469 0C23.7867 0 21.0154 1.21626 19 3.18438C21.041 5.17777 22.3062 7.94325 22.3062 11C22.3062 14.0567 21.041 16.8222 19 18.8156C21.0154 20.7837 23.7867 22 26.8469 22C33.0064 22 38 17.075 38 11C38 4.92504 33.0064 0 26.8469 0Z" fill="#8E8E93"/>
</svg>
