<svg width="24" height="24" viewBox="0 0 24 24" fill="none" xmlns="http://www.w3.org/2000/svg">
<path d="M11.9985 12.6631C15.1008 12.6633 17.6629 15.2336 17.6586 18.3359C17.6586 21.4382 15.0876 23.9998 11.9897 24C8.90028 23.9998 6.36868 21.4423 6.36861 18.3271C6.36872 15.2119 8.909 12.6588 11.9985 12.6631ZM12.0112 15.4697C11.565 15.4698 11.2994 15.779 11.2866 16.3281C11.278 16.7485 11.2866 17.1691 11.2866 17.6367C10.8147 17.6367 10.3935 17.6282 9.9731 17.6367C9.4283 17.6496 9.11936 17.9241 9.12349 18.3701C9.12784 18.8034 9.42854 19.0698 9.94771 19.0869C10.368 19.0955 10.7934 19.0869 11.2866 19.0869V19.8125C11.2866 20.0398 11.2776 20.2672 11.2905 20.4902C11.3249 20.9793 11.638 21.2755 12.0756 21.2412C12.4702 21.211 12.7239 20.923 12.7368 20.4512C12.7496 20.0051 12.7368 19.5589 12.7368 19.0742C13.2728 19.0742 13.7365 19.1003 14.1997 19.0703C14.7057 19.0358 15.0149 18.6062 14.8735 18.1602C14.7534 17.7827 14.4696 17.6329 14.0922 17.6328H12.7368V16.3281C12.7196 15.779 12.4572 15.4699 12.0112 15.4697ZM11.8315 5.12402C11.9559 5.02533 12.0334 5.01186 12.1665 5.11914C15.0285 7.41476 17.8988 9.70222 20.7651 11.9893C20.7951 12.015 20.8216 12.0496 20.8559 12.0625C21.2031 12.1656 21.186 12.4359 21.186 12.7275C21.1774 15.2507 21.1864 17.7698 21.1821 20.293C21.182 20.8849 20.9199 21.1425 20.3237 21.1426H18.5385C19.74 17.4951 18.9332 14.4478 15.6762 12.3408C13.1961 10.7361 10.5226 10.7879 8.10689 12.4912C5.05173 14.6453 4.33912 17.6363 5.519 21.1377L5.5063 21.1426C4.83689 21.1426 4.14991 21.1549 3.46333 21.1377C3.08165 21.1289 2.81625 20.8159 2.81196 20.417V12.4746C2.81196 12.303 2.87583 12.2296 3.01314 12.1309C3.53664 11.749 4.04293 11.3457 4.54927 10.9424C6.97799 9.00713 9.40706 7.06786 11.8315 5.12402ZM12.226 0C12.492 0.141572 12.7834 0.249158 13.0151 0.433594C16.3921 3.11121 19.7566 5.79759 23.1293 8.47949C23.5155 8.78839 23.8636 9.10552 23.9838 9.60742V10.0752L23.9877 10.0879C23.9877 10.0879 23.9579 10.127 23.9536 10.1484C23.7605 11.1354 22.5328 11.6328 21.6059 10.8818C18.4864 8.36308 15.3408 5.86624 12.2084 3.36035C12.1398 3.30887 12.0755 3.25673 11.9897 3.19238C11.4147 3.65149 10.844 4.10671 10.269 4.56152C7.63011 6.67264 4.98699 8.77951 2.3481 10.8906C1.86326 11.2768 1.33556 11.3798 0.777785 11.0967C0.250122 10.8307 -0.0122805 10.3761 0.000441315 9.78418C0.0133146 9.34649 0.215747 8.99436 0.559035 8.71973C2.69165 7.02479 4.81998 5.3252 6.95259 3.62598C8.29556 2.5576 9.63424 1.48069 10.9858 0.420898C11.2132 0.244983 11.4965 0.137293 11.7583 0H12.226ZM21.1723 5.12402H21.1684C21.1684 5.12288 21.1684 5.12126 21.1684 5.12012C21.1698 5.12125 21.1709 5.12289 21.1723 5.12402ZM20.477 1.41992C20.846 1.4285 21.1602 1.69521 21.1645 2.05566C21.1816 3.05861 21.1684 4.06157 21.1684 5.12012C20.3332 4.45189 19.5445 3.80047 18.7348 3.18359C18.4519 2.96913 18.3017 2.74564 18.3618 2.38965C18.3788 2.29969 18.3618 2.20127 18.3618 2.11133C18.3789 1.72517 18.6622 1.42857 19.0483 1.41992C19.5245 1.41134 20.0008 1.41135 20.477 1.41992Z" fill="white"/>
</svg>
