<svg width="18" height="14" viewBox="0 0 18 14" fill="none" xmlns="http://www.w3.org/2000/svg">
<path fill-rule="evenodd" clip-rule="evenodd" d="M5.625 4.08333C5.625 5.04983 4.86948 5.83333 3.9375 5.83333C3.00552 5.83333 2.25 5.04983 2.25 4.08333C2.25 3.11683 3.00552 2.33333 3.9375 2.33333C4.86948 2.33333 5.625 3.11683 5.625 4.08333ZM4.78125 4.08333C4.78125 4.56658 4.40349 4.95833 3.9375 4.95833C3.47151 4.95833 3.09375 4.56658 3.09375 4.08333C3.09375 3.60008 3.47151 3.20833 3.9375 3.20833C4.40349 3.20833 4.78125 3.60008 4.78125 4.08333Z" fill="white"/>
<path fill-rule="evenodd" clip-rule="evenodd" d="M2.8125 0C1.2592 0 0 1.30584 0 2.91667V11.0833C0 12.6942 1.2592 14 2.8125 14H15.1875C16.7408 14 18 12.6942 18 11.0833V2.91667C18 1.30584 16.7408 0 15.1875 0H2.8125ZM15.1875 1.16667H2.8125C1.88052 1.16667 1.125 1.95017 1.125 2.91667V9.88128L3.9375 6.96461L6.1875 9.29795L11.8125 3.46461L16.875 8.71461V2.91667C16.875 1.95017 16.1195 1.16667 15.1875 1.16667ZM2.8125 12.8333C1.89181 12.8333 1.14333 12.0687 1.12533 11.1184L3.9375 8.20205L6.1875 10.5354L11.8125 4.70205L16.875 9.95205V11.0833C16.875 12.0498 16.1195 12.8333 15.1875 12.8333H2.8125Z" fill="white"/>
</svg>
