<svg width="18" height="15" viewBox="0 0 18 15" fill="none" xmlns="http://www.w3.org/2000/svg">
<path d="M6.60938 7.78846C6.60938 6.59361 7.55377 5.625 8.71875 5.625H9V6.49038H8.71875C8.01976 6.49038 7.45312 7.07155 7.45312 7.78846V8.07692H6.60938V7.78846Z" fill="white"/>
<path fill-rule="evenodd" clip-rule="evenodd" d="M9 3.46154C6.51472 3.46154 4.5 5.52792 4.5 8.07692C4.5 10.6259 6.51472 12.6923 9 12.6923C11.4853 12.6923 13.5 10.6259 13.5 8.07692C13.5 5.52792 11.4853 3.46154 9 3.46154ZM5.625 8.07692C5.625 6.16517 7.13604 4.61538 9 4.61538C10.864 4.61538 12.375 6.16517 12.375 8.07692C12.375 9.98868 10.864 11.5385 9 11.5385C7.13604 11.5385 5.625 9.98868 5.625 8.07692Z" fill="white"/>
<path fill-rule="evenodd" clip-rule="evenodd" d="M5.625 0.337954C5.83598 0.121566 6.12213 0 6.4205 0H11.5795C11.8779 0 12.164 0.121565 12.375 0.337954L13.1705 1.15385H15.4688C16.8667 1.15385 18 2.31618 18 3.75V12.4038C18 13.8377 16.8667 15 15.4688 15H2.53125C1.13328 15 0 13.8377 0 12.4038V3.75C0 2.31618 1.13328 1.15385 2.53125 1.15385L4.8295 1.15385L5.625 0.337954ZM11.5795 1.15385H6.4205L5.625 1.96974C5.41402 2.18613 5.12787 2.30769 4.8295 2.30769H2.53125C1.7546 2.30769 1.125 2.95344 1.125 3.75V12.4038C1.125 13.2004 1.7546 13.8462 2.53125 13.8462H15.4688C16.2454 13.8462 16.875 13.2004 16.875 12.4038V3.75C16.875 2.95344 16.2454 2.30769 15.4688 2.30769H13.1705C12.8721 2.30769 12.586 2.18613 12.375 1.96974L11.5795 1.15385Z" fill="white"/>
</svg>
