<svg width="16" height="18" viewBox="0 0 16 18" fill="none" xmlns="http://www.w3.org/2000/svg">
<path d="M3.27539 3.80664C3.27539 4.31144 3.68759 4.72363 4.19238 4.72363C4.6971 4.72355 5.10938 4.31139 5.10938 3.80664V2.1416H10.751V3.80664C10.751 4.31144 11.1642 4.72363 11.6689 4.72363C12.1736 4.72343 12.5859 4.31132 12.5859 3.80664V2.1416H13.4141C14.7621 2.14172 15.8604 3.24075 15.8604 4.58887V15.5527C15.8603 16.9039 14.7621 17.9999 13.4141 18H2.44727C1.09912 18 5.02625e-06 16.9009 0 15.5527V4.58887C0 3.24068 1.09911 2.1416 2.44727 2.1416H3.27539V3.80664ZM0.785156 15.5527C0.785161 16.4669 1.53018 17.2119 2.44434 17.2119H13.4111C14.3251 17.2117 15.0693 16.4668 15.0693 15.5527H15.0664V7.15234H0.785156V15.5527ZM4.59473 12.8174C4.89561 12.8174 5.13965 13.0614 5.13965 13.3623V15.1875C5.13964 15.4884 4.89561 15.7324 4.59473 15.7324H2.42188C2.12105 15.7324 1.87696 15.4883 1.87695 15.1875V13.3623C1.87695 13.0615 2.12105 12.8175 2.42188 12.8174H4.59473ZM9.01562 12.8174C9.31645 12.8175 9.56055 13.0615 9.56055 13.3623V15.1875C9.56054 15.4883 9.31644 15.7323 9.01562 15.7324H6.84277C6.54189 15.7324 6.29786 15.4884 6.29785 15.1875V13.3623C6.29785 13.0614 6.54189 12.8174 6.84277 12.8174H9.01562ZM13.4385 12.8174C13.7393 12.8175 13.9834 13.0615 13.9834 13.3623V15.1875C13.9834 15.4883 13.7393 15.7323 13.4385 15.7324H11.2656C10.9647 15.7324 10.7207 15.4884 10.7207 15.1875V13.3623C10.7207 13.0614 10.9647 12.8174 11.2656 12.8174H13.4385ZM4.59473 8.63477C4.89548 8.63477 5.13944 8.87799 5.13965 9.17871V11.0039C5.13965 11.3048 4.89561 11.5488 4.59473 11.5488H2.42188C2.12105 11.5488 1.87695 11.3048 1.87695 11.0039V9.17871C1.87716 8.87804 2.12118 8.63484 2.42188 8.63477H4.59473ZM9.01562 8.63477C9.31632 8.63484 9.56034 8.87804 9.56055 9.17871V11.0039C9.56055 11.3048 9.31645 11.5488 9.01562 11.5488H6.84277C6.54189 11.5488 6.29785 11.3048 6.29785 11.0039V9.17871C6.29806 8.87799 6.54202 8.63477 6.84277 8.63477H9.01562ZM13.4385 8.63477C13.7391 8.63488 13.9832 8.87807 13.9834 9.17871V11.0039C13.9834 11.3047 13.7393 11.5487 13.4385 11.5488H11.2656C10.9647 11.5488 10.7207 11.3048 10.7207 11.0039V9.17871C10.7209 8.87799 10.9649 8.63477 11.2656 8.63477H13.4385ZM4.19238 0C4.45587 0 4.66992 0.214044 4.66992 0.477539V3.80469C4.66981 4.06809 4.4558 4.28125 4.19238 4.28125C3.92899 4.28122 3.71593 4.06807 3.71582 3.80469V0.477539C3.71582 0.214061 3.92892 2.72347e-05 4.19238 0ZM11.668 0C11.9315 0 12.1455 0.214044 12.1455 0.477539V3.80469C12.1454 4.06809 11.9314 4.28125 11.668 4.28125C11.4048 4.281 11.1915 4.06794 11.1914 3.80469V0.477539C11.1914 0.214199 11.4047 0.000250351 11.668 0Z" fill="white"/>
</svg>
