<svg width="18" height="18" viewBox="0 0 18 18" fill="none" xmlns="http://www.w3.org/2000/svg">
<path fill-rule="evenodd" clip-rule="evenodd" d="M9 0C9.45187 0 9.81818 0.366312 9.81818 0.818182V8.18182H17.1818C17.6337 8.18182 18 8.54813 18 9C18 9.45187 17.6337 9.81818 17.1818 9.81818H9.81818V17.1818C9.81818 17.6337 9.45187 18 9 18C8.54813 18 8.18182 17.6337 8.18182 17.1818V9.81818H0.818182C0.366312 9.81818 0 9.45187 0 9C0 8.54813 0.366312 8.18182 0.818182 8.18182H8.18182V0.818182C8.18182 0.366312 8.54813 0 9 0Z" fill="white"/>
</svg>
