<svg width="56" height="56" viewBox="0 0 56 56" fill="none" xmlns="http://www.w3.org/2000/svg">
<path d="M27.9998 0C43.4633 0.000120772 55.9994 12.5362 55.9995 27.9998C55.9995 43.4634 43.4634 55.9994 27.9998 55.9995C12.536 55.9995 0 43.4635 0 27.9998C0.000143095 12.5362 12.5361 0 27.9998 0Z" fill="#34C759"/>
<path d="M44.7204 19.7669C45.4694 19.0179 45.4694 17.8036 44.7204 17.0546C43.9714 16.3056 42.757 16.3056 42.0081 17.0546L24.1851 34.8775L15.9517 26.6441C15.2027 25.8952 13.9884 25.8952 13.2394 26.6441C12.4904 27.3931 12.4904 28.6075 13.2394 29.3565L22.8289 38.946C23.5779 39.695 24.7923 39.695 25.5413 38.946L44.7204 19.7669Z" fill="white"/>
</svg>
