<svg width="18" height="18" viewBox="0 0 18 18" fill="none" xmlns="http://www.w3.org/2000/svg">
<path d="M9 0C4.02949 0 0 4.02948 0 9C0 13.9705 4.02949 18 9 18C13.9705 18 18 13.9705 18 9C18 4.02948 13.9705 0 9 0ZM9 16.4635C4.87796 16.4635 1.5365 13.122 1.5365 9C1.5365 4.87796 4.87796 1.53651 9 1.53651C13.122 1.53651 16.4635 4.87796 16.4635 9C16.4635 13.122 13.122 16.4635 9 16.4635Z" fill="white"/>
<path d="M11.6717 8.52493H9.80508C9.71869 8.37683 9.59217 8.2565 9.44099 8.17628V5.15263C9.44099 4.94591 9.27439 4.7793 9.06767 4.7793H8.92576C8.71904 4.7793 8.5524 4.94591 8.5524 5.15263V8.17628C8.25929 8.33363 8.05566 8.64217 8.05566 9.00007C8.05566 9.51841 8.47528 9.93802 8.99362 9.93802C9.36387 9.93802 9.68165 9.72205 9.83592 9.41043H11.6656C11.8568 9.41043 12.0142 9.25616 12.0142 9.06178V8.87049C12.0142 8.67919 11.8599 8.52184 11.6656 8.52184L11.6717 8.52493Z" fill="white"/>
<path d="M9.00284 2.25195H8.99976C8.7646 2.25195 8.57397 2.44258 8.57397 2.67773V3.87485C8.57397 4.11 8.7646 4.30063 8.99976 4.30063H9.00284C9.238 4.30063 9.42862 4.11 9.42862 3.87485V2.67773C9.42862 2.44258 9.238 2.25195 9.00284 2.25195Z" fill="white"/>
<path d="M5.6798 5.67689C5.51319 5.84349 5.24169 5.84349 5.07508 5.67689L4.22969 4.8315C4.06308 4.66489 4.06308 4.39337 4.22969 4.22676C4.3963 4.06015 4.6678 4.06015 4.83441 4.22676L5.6798 5.07215C5.84641 5.23876 5.84641 5.51028 5.6798 5.67689Z" fill="white"/>
<path d="M2.25586 8.9996V9.00269C2.25586 9.23784 2.44649 9.42847 2.68164 9.42847H3.87876C4.11391 9.42847 4.30454 9.23784 4.30454 9.00269V8.9996C4.30454 8.76445 4.11391 8.57382 3.87876 8.57382H2.68164C2.44649 8.57382 2.25586 8.76445 2.25586 8.9996Z" fill="white"/>
<path d="M5.6798 12.3226C5.84641 12.4892 5.84641 12.7607 5.6798 12.9273L4.83441 13.7727C4.6678 13.9393 4.3963 13.9393 4.22969 13.7727C4.06308 13.6061 4.06308 13.3346 4.22969 13.168L5.07508 12.3226C5.24169 12.156 5.51319 12.156 5.6798 12.3226Z" fill="white"/>
<path d="M8.99984 15.7445H9.00293C9.23808 15.7445 9.42871 15.5539 9.42871 15.3187V14.1216C9.42871 13.8865 9.23808 13.6958 9.00293 13.6958H8.99984C8.76469 13.6958 8.57406 13.8865 8.57406 14.1216V15.3187C8.57406 15.5539 8.76469 15.7445 8.99984 15.7445Z" fill="white"/>
<path d="M12.3222 12.3226C12.4888 12.156 12.7603 12.156 12.9269 12.3226L13.7723 13.168C13.9389 13.3346 13.9389 13.6061 13.7723 13.7727C13.6057 13.9393 13.3342 13.9393 13.1676 13.7727L12.3222 12.9273C12.1556 12.7607 12.1556 12.4892 12.3222 12.3226Z" fill="white"/>
<path d="M15.7476 9.0026V8.99951C15.7476 8.76436 15.5569 8.57373 15.3218 8.57373H14.1247C13.8895 8.57373 13.6989 8.76436 13.6989 8.99951V9.0026C13.6989 9.23775 13.8895 9.42838 14.1247 9.42838H15.3218C15.5569 9.42838 15.7476 9.23775 15.7476 9.0026Z" fill="white"/>
<path d="M12.3222 5.67689C12.1556 5.51028 12.1556 5.23876 12.3222 5.07215L13.1676 4.22676C13.3342 4.06015 13.6057 4.06015 13.7723 4.22676C13.9389 4.39337 13.9389 4.66489 13.7723 4.8315L12.9269 5.67689C12.7603 5.84349 12.4888 5.84349 12.3222 5.67689Z" fill="white"/>
</svg>
