<svg width="18" height="18" viewBox="0 0 18 18" fill="none" xmlns="http://www.w3.org/2000/svg">
<path d="M6.60938 8.71875C6.60938 7.55377 7.55377 6.60938 8.71875 6.60938H9V7.45312H8.71875C8.01976 7.45312 7.45312 8.01976 7.45312 8.71875V9H6.60938V8.71875Z" fill="white"/>
<path fill-rule="evenodd" clip-rule="evenodd" d="M9 4.5C6.51472 4.5 4.5 6.51472 4.5 9C4.5 11.4853 6.51472 13.5 9 13.5C11.4853 13.5 13.5 11.4853 13.5 9C13.5 6.51472 11.4853 4.5 9 4.5ZM5.625 9C5.625 7.13604 7.13604 5.625 9 5.625C10.864 5.625 12.375 7.13604 12.375 9C12.375 10.864 10.864 12.375 9 12.375C7.13604 12.375 5.625 10.864 5.625 9Z" fill="white"/>
<path fill-rule="evenodd" clip-rule="evenodd" d="M5.625 1.4545C5.83598 1.24353 6.12213 1.125 6.4205 1.125H11.5795C11.8779 1.125 12.164 1.24353 12.375 1.4545L13.1705 2.25H15.4688C16.8667 2.25 18 3.38328 18 4.78125V13.2188C18 14.6167 16.8667 15.75 15.4688 15.75H2.53125C1.13328 15.75 0 14.6167 0 13.2188V4.78125C0 3.38328 1.13328 2.25 2.53125 2.25L4.8295 2.25L5.625 1.4545ZM11.5795 2.25H6.4205L5.625 3.0455C5.41402 3.25647 5.12787 3.375 4.8295 3.375H2.53125C1.7546 3.375 1.125 4.0046 1.125 4.78125V13.2188C1.125 13.9954 1.7546 14.625 2.53125 14.625H15.4688C16.2454 14.625 16.875 13.9954 16.875 13.2188V4.78125C16.875 4.0046 16.2454 3.375 15.4688 3.375H13.1705C12.8721 3.375 12.586 3.25647 12.375 3.0455L11.5795 2.25Z" fill="white"/>
</svg>
