<svg width="16" height="17" viewBox="0 0 16 17" fill="none" xmlns="http://www.w3.org/2000/svg">
<path d="M7.19188 14.0827C6.74556 14.529 6.74556 15.2526 7.19188 15.699C7.63819 16.1453 8.36181 16.1453 8.80812 15.699L15.6653 8.84181C15.8796 8.62749 16 8.3368 16 8.03369C16 7.73059 15.8796 7.4399 15.6653 7.22557L8.80812 0.368426C8.36181 -0.0778878 7.63819 -0.0778879 7.19188 0.368426C6.74557 0.814739 6.74557 1.53836 7.19188 1.98467L12.098 6.89083L1.14286 6.89083C0.511675 6.89083 0 7.40251 0 8.03369C0 8.66487 0.511675 9.17655 1.14286 9.17655L12.098 9.17655L7.19188 14.0827Z" fill="white"/>
</svg>
