<svg width="24" height="24" viewBox="0 0 24 24" fill="none" xmlns="http://www.w3.org/2000/svg">
<path d="M10.5 9.75C10.5 9.33579 10.1642 9 9.75 9C9.33579 9 9 9.33579 9 9.75V15.75C9 16.1642 9.33579 16.5 9.75 16.5C10.1642 16.5 10.5 16.1642 10.5 15.75V9.75Z" fill="#F6E9E9"/>
<path d="M15 9.75C15 9.33579 14.6642 9 14.25 9C13.8358 9 13.5 9.33579 13.5 9.75V15.75C13.5 16.1642 13.8358 16.5 14.25 16.5C14.6642 16.5 15 16.1642 15 15.75V9.75Z" fill="#F6E9E9"/>
<path fill-rule="evenodd" clip-rule="evenodd" d="M9.75 0C8.92157 0 8.25 0.671573 8.25 1.5V3H2.25C1.83579 3 1.5 3.33579 1.5 3.75C1.5 4.16421 1.83579 4.5 2.25 4.5H3V12C3 14.3598 3.56761 17.53 4.00197 19.6195C4.35762 21.3303 5.87601 22.5 7.59233 22.5H16.4077C18.124 22.5 19.6424 21.3303 19.998 19.6195C20.4324 17.53 21 14.3598 21 12V4.5H21.75C22.1642 4.5 22.5 4.16421 22.5 3.75C22.5 3.33579 22.1642 3 21.75 3H15.75V1.5C15.75 0.671573 15.0784 0 14.25 0H9.75ZM14.25 3H9.75V1.5H14.25V3ZM4.5 4.5H19.5V12C19.5 14.19 18.9636 17.2255 18.5294 19.3142C18.3247 20.2989 17.4446 21 16.4077 21H7.59233C6.55544 21 5.67528 20.2989 5.47058 19.3142C5.03638 17.2254 4.5 14.19 4.5 12V4.5Z" fill="#F6E9E9"/>
</svg>
