<svg width="24" height="24" viewBox="0 0 24 24" fill="none" xmlns="http://www.w3.org/2000/svg">
<path d="M9.906 12.3755L9.54264 12.8912L5.30258 18.6984L11.6295 14.0991L12.2907 14.7598L1 23L9.24147 11.711L9.906 12.3755Z" fill="white"/>
<path fill-rule="evenodd" clip-rule="evenodd" d="M23 8.87993L22.806 9.07392C21.7607 10.119 20.0577 10.119 19.0124 9.07392L18.6075 8.66904L15.7868 12.0051C16.922 14.1576 16.8527 16.3345 15.6032 17.5838L15.4096 17.7778L6.21962 8.58928L6.41364 8.39563C7.66663 7.14637 9.84037 7.08048 11.9932 8.21212L15.3298 5.39182L14.9248 4.9866C13.8795 3.94146 13.8795 2.23879 14.9248 1.19365L15.1185 1L23 8.87993ZM9.01635 8.3473C8.49378 8.3473 8.01963 8.45436 7.62508 8.66195L7.61798 8.65857L15.3332 16.3726C15.5408 15.978 15.6482 15.5003 15.6482 14.9778C15.6482 14.1334 15.3781 13.2059 14.8728 12.2923L14.8488 12.2474L11.7475 9.14658L11.7022 9.12225C10.7919 8.61354 9.86088 8.3473 9.01635 8.3473ZM12.7406 8.81099L15.1912 11.2612L17.943 8.00461L15.9977 6.05964L12.7406 8.81099ZM15.2122 2.42248C14.9457 3.06271 15.084 3.82063 15.5894 4.32589L19.677 8.41287C20.1823 8.91813 20.9403 9.05651 21.5807 8.79003L15.2122 2.42248Z" fill="white"/>
</svg>
