<svg width="24" height="24" viewBox="0 0 24 24" fill="none" xmlns="http://www.w3.org/2000/svg">
<path d="M9.24996 20C9.24998 21.3807 10.3693 22.5 11.75 22.5C13.1306 22.4999 14.2499 21.3806 14.25 20H15.25C15.2499 21.9329 13.6829 23.4999 11.75 23.5C9.81698 23.5 8.24998 21.9329 8.24996 20H9.24996ZM0.146447 0.146447C0.341709 -0.0488155 0.658216 -0.0488155 0.853478 0.146447L23.3535 22.6464C23.5487 22.8417 23.5487 23.1582 23.3535 23.3535C23.1582 23.5487 22.8417 23.5487 22.6464 23.3535L18.2929 19H2.49996C1.94769 19 1.49998 18.5522 1.49996 18V16.664C1.5 16.2663 1.65815 15.8847 1.93942 15.6035L3.47457 14.0683C4.13094 13.412 4.49995 12.521 4.49996 11.5927V6.99996C4.49996 6.45571 4.57913 5.92997 4.72652 5.43356L0.146447 0.853478C-0.0488155 0.658216 -0.0488155 0.341709 0.146447 0.146447ZM13.5 1.49996C16.5375 1.49998 19 3.96241 19 6.99996V11.5927C19 12.521 19.369 13.412 20.0254 14.0683L21.5605 15.6035C21.8418 15.8847 21.9999 16.2663 22 16.664V18C22 18.2761 21.8879 18.526 21.707 18.707L21 18V16.664C20.9999 16.5315 20.9472 16.4042 20.8535 16.3105L19.3183 14.7754C18.4744 13.9314 18 12.7862 18 11.5927V6.99996C18 4.51469 15.9852 2.49998 13.5 2.49996H9.99996C8.75732 2.49996 7.63266 3.00398 6.81832 3.81832L6.11129 3.11129C7.10659 2.11599 8.48118 1.49996 9.99996 1.49996H13.5ZM5.56051 6.26754C5.52162 6.50598 5.49996 6.75052 5.49996 6.99996V11.5927C5.49995 12.7862 5.02551 13.9314 4.1816 14.7754L2.64645 16.3105C2.55271 16.4042 2.5 16.5315 2.49996 16.664V18H17.2929L8.21676 8.92379C8.14595 9.11385 7.96469 9.24995 7.74996 9.24996C7.47383 9.24996 7.24998 9.02609 7.24996 8.74996C7.24996 8.50324 7.27203 8.25886 7.31149 8.01852L5.56051 6.26754ZM11.75 4.24996C12.0261 4.24998 12.25 4.47383 12.25 4.74996C12.2499 5.02607 12.0261 5.24994 11.75 5.24996C10.8217 5.24996 9.93173 5.61898 9.27535 6.27535L8.56832 5.56832C9.41224 4.72441 10.5565 4.24996 11.75 4.24996Z" fill="white"/>
</svg>
